<!DOCTYPE svg PUBLIC "-//W3C//DTD SVG 1.1//EN" "http://www.w3.org/Graphics/SVG/1.1/DTD/svg11.dtd">
<!-- Uploaded to: SVG Repo, www.svgrepo.com, Transformed by: SVG Repo Mixer Tools -->
<svg fill="#ffffff" width="800px" height="800px" viewBox="0 0 24 24" xmlns="http://www.w3.org/2000/svg">
<g id="SVGRepo_bgCarrier" stroke-width="0"/>
<g id="SVGRepo_tracerCarrier" stroke-linecap="round" stroke-linejoin="round"/>
<g id="SVGRepo_iconCarrier">
<path d="M5,12a1,1,0,0,0-1,1v8a1,1,0,0,0,2,0V13A1,1,0,0,0,5,12ZM10,2A1,1,0,0,0,9,3V21a1,1,0,0,0,2,0V3A1,1,0,0,0,10,2ZM20,16a1,1,0,0,0-1,1v4a1,1,0,0,0,2,0V17A1,1,0,0,0,20,16ZM15,8a1,1,0,0,0-1,1V21a1,1,0,0,0,2,0V9A1,1,0,0,0,15,8Z"/>
</g>
</svg>