<?xml version="1.0" encoding="utf-8"?><!-- Uploaded to: SVG Repo, www.svgrepo.com, Generator: SVG Repo Mixer Tools -->
<svg version="1.1" id="Uploaded to svgrepo.com" xmlns="http://www.w3.org/2000/svg" xmlns:xlink="http://www.w3.org/1999/xlink" 
	 width="800px" height="800px" viewBox="0 0 32 32" xml:space="preserve">
<style type="text/css">
	.blueprint_een{fill:#111918;}
</style>
<path class="blueprint_een" d="M5,9h18v1H5V9z M5,13h8v9H5V13z M6,21h6v-7H6V21z M16,14h7v-1h-7V14z M16,16h7v-1h-7V16z M16,20h7v-1
	h-7V20z M16,18h7v-1h-7V18z M16,22h7v-1h-7V22z M32,7v17c0,2.206-1.794,4-4,4H4c-2.206,0-4-1.794-4-4V5c0-0.552,0.448-1,1-1h26
	c0.552,0,1,0.448,1,1v1h3C31.552,6,32,6.448,32,7z M30,8h-3v14h-1V7V6H2v18c0,1.103,0.897,2,2,2h24c1.103,0,2-0.897,2-2V8z"/>
</svg>