<svg width="20" height="20" viewBox="0 0 20 20" fill="none" xmlns="http://www.w3.org/2000/svg">
  <path d="M8.5 3C11.5376 3 14 5.46243 14 8.5C14 9.74832 13.5841 10.8998 12.8834 11.8226L16.7071 15.6464C17.0976 16.0369 17.0976 16.6701 16.7071 17.0606C16.3166 17.4512 15.6834 17.4512 15.2929 17.0606L11.4692 13.2369C10.5464 13.9376 9.39496 14.3536 8.14664 14.3536C5.10904 14.3536 2.64664 11.8912 2.64664 8.85364C2.64664 5.81604 5.10904 3.35364 8.14664 3.35364H8.5ZM8.5 5.35364C6.21366 5.35364 4.35364 7.21366 4.35364 9.5C4.35364 11.7863 6.21366 13.6464 8.5 13.6464C10.7863 13.6464 12.6464 11.7863 12.6464 9.5C12.6464 7.21366 10.7863 5.35364 8.5 5.35364Z" fill="#6B7280"/>
</svg> 