<!DOCTYPE svg PUBLIC "-//W3C//DTD SVG 1.1//EN" "http://www.w3.org/Graphics/SVG/1.1/DTD/svg11.dtd">
<!-- Uploaded to: SVG Repo, www.svgrepo.com, Transformed by: SVG Repo Mixer Tools -->
<svg fill="#ffffff" height="800px" width="800px" version="1.1" id="Capa_1" xmlns="http://www.w3.org/2000/svg" xmlns:xlink="http://www.w3.org/1999/xlink" viewBox="0 0 325.592 325.592" xml:space="preserve" stroke="#ffffff">
<g id="SVGRepo_bgCarrier" stroke-width="0"/>
<g id="SVGRepo_tracerCarrier" stroke-linecap="round" stroke-linejoin="round"/>
<g id="SVGRepo_iconCarrier"> <g> <g> <path d="M104.484,166.881v-41.55c0-3.866-3.134-7-7-7c-3.866,0-7,3.134-7,7v41.55c-11.38,3.085-19.777,13.499-19.777,25.841 c0,12.345,8.397,22.76,19.777,25.846v44.248c0,3.866,3.134,7,7,7c3.866,0,7-3.134,7-7v-44.248 c11.379-3.086,19.776-13.501,19.776-25.846C124.26,180.38,115.863,169.967,104.484,166.881z"/> <path d="M166.953,141.578v-16.247c0-3.866-3.134-7-7-7s-7,3.134-7,7v16.247c-11.38,3.085-19.778,13.499-19.778,25.842 c0,12.343,8.398,22.757,19.778,25.842v69.554c0,3.866,3.134,7,7,7s7-3.134,7-7v-69.554c11.379-3.086,19.776-13.499,19.776-25.842 C186.729,155.077,178.332,144.664,166.953,141.578z"/> <path d="M244.706,212.502c0-12.345-8.397-22.759-19.776-25.845v-61.326c0-3.866-3.134-7-7-7s-7,3.134-7,7v61.326 c-11.379,3.086-19.775,13.5-19.775,25.845c0,12.343,8.396,22.756,19.775,25.842v24.472c0,3.866,3.134,7,7,7s7-3.134,7-7v-24.472 C236.31,235.258,244.706,224.845,244.706,212.502z"/> </g> <path d="M308.092,8.463H17.5c-9.649,0-17.5,7.851-17.5,17.5v273.666c0,9.649,7.851,17.5,17.5,17.5h290.592 c9.649,0,17.5-7.851,17.5-17.5V25.963C325.592,16.313,317.741,8.463,308.092,8.463z M273.465,35.296c7.995,0,14.5,6.505,14.5,14.5 s-6.505,14.5-14.5,14.5c-7.995,0-14.5-6.505-14.5-14.5S265.47,35.296,273.465,35.296z M224.294,35.296 c7.995,0,14.5,6.505,14.5,14.5s-6.505,14.5-14.5,14.5c-7.995,0-14.5-6.505-14.5-14.5S216.299,35.296,224.294,35.296z M44.399,42.296h58.5c4.142,0,7.5,3.357,7.5,7.5s-3.358,7.5-7.5,7.5h-58.5c-4.142,0-7.5-3.357-7.5-7.5S40.257,42.296,44.399,42.296 z M297.796,286.806c0,1.258-1.024,2.283-2.284,2.283H30.08c-1.259,0-2.284-1.025-2.284-2.283V98.336h270V286.806z"/> </g> </g>
</svg>