<?xml version="1.0" encoding="utf-8"?>
<!-- Generator: Adobe Illustrator 27.5.0, SVG Export Plug-In . SVG Version: 6.00 Build 0)  -->
<svg version="1.1" xmlns="http://www.w3.org/2000/svg" xmlns:xlink="http://www.w3.org/1999/xlink" x="0px" y="0px"
	 viewBox="0 0 500 500" style="enable-background:new 0 0 500 500;" xml:space="preserve">
<g id="Background_Complete">
	<g>
		<g>
			<g>
				<path style="fill:#EBEBEB;" d="M231.707,169.751c-30.7-0.41-58.481-0.781-78.619-1.05c-10.046-0.086-18.179-0.156-23.826-0.204
					c-2.798-0.004-4.975-0.007-6.478-0.009c-0.725,0.007-1.284,0.013-1.685,0.017c-0.38,0.008-0.574,0.018-0.574,0.029
					c0,0.012,0.194,0.025,0.574,0.039c0.4,0.011,0.959,0.026,1.684,0.047c1.503,0.024,3.68,0.06,6.477,0.106
					c5.647,0.052,13.78,0.126,23.826,0.218c20.139,0.088,47.923,0.209,78.625,0.344c30.687,0.111,58.476,0.255,78.592,0.479
					c10.058,0.11,18.198,0.236,23.824,0.365c2.813,0.065,4.997,0.13,6.477,0.193c1.481,0.063,2.258,0.124,2.258,0.179
					c-0.001,0.055-0.779,0.102-2.26,0.139c-1.481,0.037-3.666,0.063-6.48,0.078c-5.627,0.03-13.768,0.012-23.826-0.057
					C290.178,170.531,262.391,170.184,231.707,169.751z"/>
			</g>
		</g>
		<g>
			<g>
				<path style="fill:#EBEBEB;" d="M231.069,176.676c-30.263-5.178-57.649-9.864-77.5-13.26c-9.911-1.645-17.934-2.977-23.505-3.902
					c-2.763-0.438-4.914-0.778-6.398-1.013c-0.718-0.105-1.271-0.186-1.667-0.244c-0.376-0.051-0.57-0.071-0.572-0.059
					c-0.002,0.012,0.188,0.056,0.56,0.129c0.394,0.073,0.943,0.176,1.656,0.309c1.481,0.258,3.626,0.632,6.382,1.113
					c5.571,0.929,13.593,2.267,23.502,3.92c19.881,3.215,47.309,7.65,77.618,12.551c30.297,4.875,57.727,9.333,77.564,12.68
					c9.919,1.671,17.94,3.062,23.477,4.065c2.768,0.501,4.915,0.906,6.368,1.199c1.453,0.293,2.211,0.475,2.202,0.531
					c-0.009,0.056-0.785-0.018-2.255-0.211c-1.469-0.193-3.632-0.506-6.413-0.928c-5.563-0.844-13.603-2.126-23.528-3.757
					C288.708,186.54,261.313,181.876,231.069,176.676z"/>
			</g>
		</g>
		<g>
			<g>
				<path style="fill:#EBEBEB;" d="M229.354,183.417c-29.069-9.881-55.375-18.822-74.443-25.303
					c-9.528-3.185-17.241-5.764-22.598-7.555c-2.66-0.867-4.73-1.542-6.159-2.008c-0.692-0.217-1.226-0.383-1.608-0.503
					c-0.364-0.109-0.552-0.16-0.556-0.148c-0.004,0.012,0.177,0.085,0.533,0.217c0.378,0.135,0.904,0.322,1.587,0.566
					c1.422,0.489,3.481,1.196,6.127,2.105c5.355,1.795,13.066,4.38,22.591,7.572c19.127,6.305,45.515,15.003,74.674,24.614
					c29.152,9.583,55.538,18.304,74.6,24.733c9.532,3.213,17.234,5.849,22.544,7.713c2.655,0.932,4.711,1.67,6.1,2.188
					c1.388,0.519,2.108,0.818,2.09,0.872c-0.018,0.054-0.773-0.14-2.194-0.562c-1.421-0.422-3.507-1.07-6.188-1.925
					c-5.361-1.709-13.099-4.24-22.644-7.414C284.719,202.237,258.401,193.315,229.354,183.417z"/>
			</g>
		</g>
		<g>
			<g>
				<path style="fill:#EBEBEB;" d="M226.602,189.796c-27.154-14.33-51.726-27.297-69.537-36.696
					c-8.908-4.645-16.12-8.406-21.127-11.017c-2.49-1.275-4.428-2.268-5.766-2.953c-0.65-0.323-1.15-0.572-1.509-0.751
					c-0.342-0.165-0.52-0.245-0.525-0.234c-0.005,0.011,0.161,0.111,0.492,0.297c0.351,0.192,0.842,0.46,1.478,0.808
					c1.327,0.706,3.249,1.728,5.72,3.042c5.005,2.615,12.214,6.381,21.119,11.032c17.896,9.237,42.585,21.981,69.867,36.063
					c27.28,14.054,51.963,26.82,69.777,36.168c8.908,4.672,16.1,8.487,21.05,11.162c2.475,1.337,4.391,2.389,5.68,3.119
					c1.29,0.73,1.954,1.138,1.928,1.188c-0.026,0.05-0.741-0.262-2.077-0.903c-1.336-0.641-3.294-1.61-5.807-2.876
					c-5.025-2.532-12.267-6.251-21.194-10.887C278.318,217.089,253.73,204.139,226.602,189.796z"/>
			</g>
		</g>
		<g>
			<g>
				<path style="fill:#EBEBEB;" d="M222.882,195.666c-24.579-18.398-46.823-35.047-62.946-47.115
					c-8.072-5.981-14.607-10.822-19.145-14.184c-2.26-1.649-4.019-2.932-5.234-3.818c-0.591-0.421-1.046-0.745-1.372-0.977
					c-0.312-0.217-0.475-0.323-0.482-0.314c-0.007,0.01,0.142,0.135,0.44,0.37c0.317,0.245,0.76,0.586,1.334,1.029
					c1.201,0.905,2.939,2.215,5.174,3.898c4.535,3.365,11.067,8.211,19.135,14.198c16.232,11.921,38.626,28.367,63.372,46.54
					c24.748,18.145,47.132,34.612,63.266,46.63c8.068,6.007,14.575,10.9,19.046,14.315c2.236,1.708,3.963,3.046,5.123,3.969
					c1.16,0.923,1.752,1.43,1.719,1.475c-0.033,0.045-0.691-0.374-1.911-1.216c-1.22-0.842-3.002-2.105-5.286-3.749
					c-4.567-3.286-11.139-8.091-19.232-14.065C269.695,230.708,247.435,214.074,222.882,195.666z"/>
			</g>
		</g>
		<g>
			<g>
				<path style="fill:#EBEBEB;" d="M218.293,200.884c-21.419-21.997-40.803-41.903-54.853-56.331
					c-7.044-7.163-12.746-12.963-16.705-16.989c-1.976-1.981-3.514-3.522-4.576-4.586c-0.518-0.508-0.918-0.899-1.204-1.179
					c-0.274-0.263-0.419-0.393-0.427-0.385c-0.009,0.008,0.119,0.155,0.377,0.434c0.275,0.291,0.659,0.697,1.158,1.224
					c1.045,1.08,2.559,2.645,4.505,4.656c3.957,4.03,9.655,9.832,16.694,17.001c14.18,14.301,33.744,34.03,55.362,55.831
					c21.624,21.774,41.175,41.522,55.242,55.904c7.035,7.189,12.703,13.034,16.589,17.103c1.943,2.035,3.441,3.625,4.443,4.717
					c1.002,1.092,1.509,1.685,1.469,1.724c-0.04,0.039-0.624-0.478-1.698-1.499c-1.074-1.021-2.638-2.547-4.638-4.525
					c-4.001-3.957-9.745-9.725-16.81-16.885C259.088,242.78,239.685,222.886,218.293,200.884z"/>
			</g>
		</g>
		<g>
			<g>
				<path style="fill:#EBEBEB;" d="M212.95,205.324c-17.737-25.061-33.788-47.74-45.423-64.178
					c-5.844-8.172-10.575-14.787-13.86-19.381c-1.644-2.264-2.924-4.025-3.807-5.241c-0.433-0.582-0.767-1.031-1.006-1.352
					c-0.23-0.302-0.352-0.453-0.362-0.446c-0.01,0.007,0.094,0.172,0.305,0.487c0.226,0.33,0.542,0.791,0.953,1.39
					c0.865,1.23,2.117,3.011,3.726,5.3c3.282,4.596,8.008,11.215,13.846,19.39c11.783,16.332,28.04,38.864,46.004,63.762
					c17.975,24.872,34.216,47.421,45.876,63.815c5.831,8.196,10.52,14.851,13.726,19.475c1.603,2.312,2.835,4.116,3.655,5.351
					c0.82,1.234,1.228,1.899,1.182,1.932c-0.046,0.033-0.542-0.569-1.444-1.744c-0.902-1.176-2.21-2.926-3.878-5.192
					c-3.337-4.531-8.114-11.123-13.979-19.294C246.731,253.056,230.659,230.386,212.95,205.324z"/>
			</g>
		</g>
		<g>
			<g>
				<path style="fill:#EBEBEB;" d="M206.98,208.877c-13.6-27.526-25.907-52.436-34.828-70.492
					c-4.495-8.985-8.133-16.258-10.66-21.309c-1.27-2.493-2.259-4.433-2.941-5.772c-0.337-0.643-0.596-1.138-0.782-1.492
					c-0.18-0.334-0.278-0.503-0.289-0.497c-0.011,0.006,0.065,0.185,0.225,0.529c0.172,0.362,0.412,0.866,0.724,1.522
					c0.662,1.35,1.62,3.305,2.851,5.817c2.523,5.053,6.156,12.329,10.644,21.317c9.086,17.973,21.62,42.769,35.471,70.17
					c13.866,27.376,26.383,52.186,35.335,70.202c4.478,9.007,8.069,16.313,10.512,21.382c1.222,2.534,2.156,4.509,2.773,5.857
					c0.617,1.348,0.915,2.068,0.865,2.093c-0.051,0.025-0.447-0.646-1.155-1.948c-0.708-1.302-1.726-3.235-3.019-5.734
					c-2.588-4.997-6.276-12.254-10.791-21.243C232.881,261.305,220.552,236.4,206.98,208.877z"/>
			</g>
		</g>
		<g>
			<g>
				<path style="fill:#EBEBEB;" d="M200.526,211.45c-9.099-29.323-17.333-55.859-23.302-75.094
					c-3.025-9.58-5.474-17.336-7.175-22.721c-0.862-2.662-1.534-4.733-1.997-6.163c-0.232-0.688-0.41-1.217-0.538-1.597
					c-0.125-0.358-0.195-0.54-0.207-0.537c-0.012,0.004,0.035,0.193,0.138,0.558c0.113,0.384,0.271,0.92,0.475,1.617
					c0.441,1.437,1.079,3.519,1.9,6.193c1.697,5.387,4.139,13.144,7.157,22.727c6.145,19.179,14.623,45.638,23.991,74.876
					c9.387,29.216,17.845,55.687,23.852,74.887c3.005,9.599,5.402,17.38,7.016,22.77c0.807,2.695,1.42,4.792,1.817,6.22
					c0.397,1.428,0.578,2.186,0.524,2.203c-0.054,0.017-0.34-0.708-0.834-2.106c-0.494-1.397-1.195-3.466-2.08-6.137
					c-1.769-5.341-4.27-13.089-7.315-22.676C217.854,267.299,209.597,240.765,200.526,211.45z"/>
			</g>
		</g>
		<g>
			<g>
				<path style="fill:#EBEBEB;" d="M193.745,212.974c-4.373-30.39-8.33-57.891-11.198-77.825c-1.48-9.937-2.678-17.981-3.51-23.567
					c-0.433-2.764-0.769-4.915-1.002-6.4c-0.121-0.716-0.214-1.266-0.28-1.661c-0.067-0.374-0.108-0.564-0.119-0.563
					c-0.012,0.002,0.005,0.196,0.049,0.573c0.051,0.397,0.122,0.951,0.215,1.671c0.209,1.489,0.512,3.645,0.902,6.415
					c0.828,5.587,2.02,13.632,3.492,23.569c3.05,19.907,7.259,47.371,11.909,77.719c4.672,30.329,8.859,57.801,11.77,77.707
					c1.458,9.953,2.6,18.013,3.347,23.59c0.373,2.788,0.648,4.956,0.816,6.428c0.167,1.473,0.227,2.25,0.172,2.258
					c-0.055,0.008-0.224-0.753-0.492-2.211c-0.268-1.458-0.635-3.611-1.088-6.388c-0.907-5.553-2.157-13.598-3.655-23.544
					C202.072,270.854,198.092,243.352,193.745,212.974z"/>
			</g>
		</g>
		<g>
			<g>
				<path style="fill:#EBEBEB;" d="M186.808,213.419c0.391-30.7,0.745-58.482,1.001-78.62c0.08-10.046,0.145-18.179,0.189-23.826
					c0.002-2.798,0.004-4.975,0.005-6.478c-0.008-0.726-0.014-1.284-0.018-1.685c-0.008-0.38-0.018-0.574-0.03-0.574
					c-0.012,0-0.025,0.194-0.039,0.574c-0.011,0.4-0.026,0.959-0.046,1.684c-0.024,1.503-0.058,3.68-0.102,6.477
					c-0.048,5.647-0.118,13.78-0.203,23.826c-0.076,20.139-0.18,47.923-0.295,78.625c-0.092,30.687-0.219,58.476-0.431,78.592
					c-0.104,10.058-0.225,18.198-0.351,23.824c-0.063,2.813-0.127,4.997-0.189,6.477c-0.062,1.481-0.122,2.258-0.178,2.258
					c-0.055,0-0.103-0.779-0.141-2.26c-0.038-1.482-0.065-3.666-0.082-6.48c-0.033-5.627-0.02-13.768,0.042-23.826
					C186.064,271.891,186.395,244.104,186.808,213.419z"/>
			</g>
		</g>
		<g>
			<g>
				<path style="fill:#EBEBEB;" d="M179.883,212.786c5.159-30.266,9.827-57.655,13.212-77.508
					c1.639-9.912,2.966-17.936,3.887-23.508c0.436-2.764,0.775-4.914,1.009-6.399c0.105-0.718,0.185-1.271,0.243-1.667
					c0.051-0.376,0.07-0.57,0.059-0.572c-0.012-0.002-0.056,0.188-0.129,0.56c-0.073,0.394-0.175,0.943-0.308,1.657
					c-0.257,1.481-0.63,3.626-1.109,6.382c-0.925,5.571-2.258,13.594-3.905,23.505c-3.202,19.883-7.62,47.314-12.502,77.626
					c-4.856,30.3-9.296,57.733-12.631,77.572c-1.665,9.92-3.05,17.942-4.05,23.48c-0.5,2.769-0.903,4.916-1.195,6.369
					c-0.292,1.453-0.474,2.211-0.529,2.202c-0.056-0.009,0.017-0.786,0.21-2.255c0.192-1.47,0.503-3.632,0.923-6.414
					c0.84-5.564,2.118-13.604,3.742-23.531C170.055,270.431,174.703,243.033,179.883,212.786z"/>
			</g>
		</g>
		<g>
			<g>
				<path style="fill:#EBEBEB;" d="M173.141,211.075c9.863-29.075,18.787-55.387,25.256-74.459
					c3.179-9.53,5.753-17.245,7.541-22.602c0.865-2.661,1.538-4.731,2.004-6.161c0.216-0.692,0.383-1.226,0.502-1.608
					c0.109-0.364,0.159-0.552,0.148-0.556c-0.012-0.004-0.085,0.177-0.216,0.533c-0.135,0.378-0.322,0.904-0.565,1.587
					c-0.488,1.422-1.194,3.481-2.101,6.128c-1.792,5.356-4.372,13.069-7.558,22.596c-6.293,19.131-14.974,45.524-24.567,74.689
					c-9.565,29.158-18.269,55.549-24.686,74.616c-3.207,9.534-5.839,17.238-7.699,22.548c-0.93,2.655-1.666,4.712-2.184,6.101
					c-0.518,1.389-0.817,2.109-0.871,2.091c-0.054-0.018,0.14-0.773,0.561-2.194c0.421-1.421,1.068-3.508,1.921-6.189
					c1.705-5.362,4.232-13.101,7.4-22.648C154.356,266.452,163.261,240.128,173.141,211.075z"/>
			</g>
		</g>
		<g>
			<g>
				<path style="fill:#EBEBEB;" d="M166.76,208.327c14.312-27.163,27.264-51.743,36.653-69.56
					c4.64-8.911,8.396-16.125,11.003-21.134c1.274-2.491,2.265-4.43,2.949-5.768c0.323-0.65,0.572-1.151,0.75-1.509
					c0.165-0.342,0.244-0.52,0.234-0.525c-0.011-0.006-0.111,0.161-0.297,0.493c-0.192,0.351-0.46,0.842-0.807,1.479
					c-0.705,1.327-1.726,3.25-3.038,5.721c-2.612,5.007-6.373,12.218-11.019,21.126c-9.226,17.902-21.954,42.599-36.019,69.89
					c-14.037,27.288-26.787,51.98-36.124,69.8c-4.667,8.911-8.477,16.105-11.149,21.057c-1.335,2.476-2.386,4.392-3.115,5.682
					c-0.729,1.29-1.137,1.955-1.186,1.929c-0.05-0.026,0.262-0.741,0.901-2.077c0.64-1.337,1.609-3.295,2.873-5.809
					c2.529-5.026,6.243-12.271,10.873-21.201C139.499,260.06,152.434,235.464,166.76,208.327z"/>
			</g>
		</g>
		<g>
			<g>
				<path style="fill:#EBEBEB;" d="M160.888,204.611c18.383-24.591,35.018-46.845,47.076-62.975
					c5.975-8.076,10.813-14.614,14.172-19.154c1.648-2.261,2.93-4.021,3.815-5.236c0.421-0.591,0.744-1.047,0.976-1.373
					c0.217-0.312,0.323-0.475,0.313-0.482c-0.009-0.007-0.135,0.142-0.37,0.44c-0.245,0.317-0.586,0.76-1.029,1.335
					c-0.904,1.201-2.213,2.941-3.895,5.176c-3.362,4.538-8.204,11.072-14.186,19.144c-11.911,16.24-28.343,38.644-46.501,63.401
					c-18.13,24.759-34.583,47.154-46.591,63.295c-6.002,8.072-10.891,14.582-14.303,19.055c-1.706,2.237-3.043,3.965-3.965,5.125
					s-1.429,1.753-1.474,1.72c-0.045-0.033,0.374-0.691,1.215-1.911c0.841-1.22,2.104-3.004,3.745-5.288
					c3.284-4.57,8.085-11.144,14.053-19.241C125.875,251.446,142.495,229.175,160.888,204.611z"/>
			</g>
		</g>
		<g>
			<g>
				<path style="fill:#EBEBEB;" d="M155.667,200.025c21.983-21.433,41.877-40.829,56.297-54.888
					c7.159-7.048,12.955-12.754,16.979-16.716c1.979-1.978,3.52-3.516,4.583-4.579c0.507-0.519,0.898-0.918,1.178-1.205
					c0.263-0.274,0.393-0.419,0.385-0.428c-0.008-0.008-0.155,0.119-0.434,0.377c-0.291,0.275-0.697,0.66-1.224,1.159
					c-1.08,1.046-2.643,2.561-4.652,4.508c-4.027,3.96-9.827,9.661-16.99,16.705c-14.292,14.189-34.009,33.765-55.797,55.396
					c-21.76,21.638-41.497,41.201-55.869,55.277c-7.185,7.04-13.026,12.71-17.093,16.599c-2.033,1.944-3.623,3.443-4.714,4.446
					c-1.091,1.003-1.684,1.51-1.723,1.47c-0.039-0.04,0.477-0.624,1.498-1.699c1.02-1.075,2.545-2.64,4.522-4.641
					c3.954-4.003,9.719-9.751,16.875-16.82C113.797,240.846,133.678,221.431,155.667,200.025z"/>
			</g>
		</g>
		<g>
			<g>
				<path style="fill:#EBEBEB;" d="M151.223,194.685c25.05-17.753,47.719-33.818,64.15-45.463
					c8.168-5.849,14.781-10.584,19.372-13.872c2.263-1.646,4.023-2.926,5.239-3.81c0.582-0.434,1.03-0.767,1.351-1.007
					c0.302-0.23,0.453-0.353,0.446-0.363c-0.007-0.01-0.172,0.094-0.487,0.305c-0.33,0.227-0.791,0.543-1.389,0.954
					c-1.229,0.865-3.009,2.118-5.297,3.729c-4.594,3.285-11.21,8.015-19.382,13.859c-16.325,11.794-38.846,28.065-63.733,46.044
					c-24.861,17.99-47.4,34.245-63.787,45.915c-8.192,5.837-14.844,10.53-19.467,13.738c-2.311,1.604-4.115,2.838-5.349,3.659
					c-1.234,0.821-1.898,1.229-1.931,1.183c-0.032-0.046,0.568-0.543,1.743-1.446c1.175-0.903,2.925-2.212,5.189-3.882
					c4.529-3.339,11.117-8.121,19.286-13.991C103.513,228.495,126.172,212.409,151.223,194.685z"/>
			</g>
		</g>
		<g>
			<g>
				<path style="fill:#EBEBEB;" d="M147.667,188.717c27.518-13.617,52.419-25.94,70.47-34.872c8.982-4.5,16.254-8.143,21.303-10.673
					c2.492-1.272,4.431-2.262,5.77-2.945c0.643-0.337,1.137-0.597,1.492-0.783c0.334-0.18,0.503-0.278,0.497-0.289
					c-0.006-0.011-0.185,0.065-0.529,0.225c-0.362,0.172-0.866,0.412-1.521,0.725c-1.349,0.662-3.304,1.622-5.815,2.855
					c-5.051,2.526-12.325,6.164-21.31,10.657c-17.968,9.097-42.756,21.647-70.148,35.515c-27.367,13.883-52.17,26.415-70.18,35.38
					c-9.004,4.484-16.308,8.079-21.376,10.525c-2.534,1.223-4.508,2.159-5.855,2.777c-1.347,0.618-2.067,0.917-2.093,0.866
					c-0.025-0.05,0.646-0.448,1.948-1.156c1.302-0.708,3.234-1.728,5.732-3.023c4.995-2.591,12.25-6.283,21.236-10.804
					C95.256,214.651,120.152,202.306,147.667,188.717z"/>
			</g>
		</g>
		<g>
			<g>
				<path style="fill:#EBEBEB;" d="M145.09,182.265c29.317-9.118,55.848-17.369,75.079-23.349
					c9.578-3.031,17.332-5.485,22.716-7.189c2.661-0.864,4.732-1.537,6.161-2.001c0.688-0.232,1.217-0.411,1.596-0.539
					c0.358-0.126,0.54-0.196,0.536-0.207c-0.004-0.012-0.193,0.035-0.558,0.139c-0.384,0.113-0.92,0.271-1.616,0.476
					c-1.437,0.442-3.518,1.081-6.192,1.904c-5.386,1.7-13.142,4.148-22.722,7.171c-19.175,6.157-45.629,14.652-74.861,24.038
					c-29.21,9.405-55.675,17.88-74.871,23.899c-9.597,3.011-17.376,5.412-22.766,7.031c-2.695,0.809-4.791,1.423-6.219,1.821
					c-1.428,0.398-2.186,0.58-2.203,0.526c-0.017-0.054,0.708-0.341,2.105-0.836c1.397-0.495,3.466-1.198,6.136-2.084
					c5.34-1.773,13.086-4.278,22.671-7.329C89.251,199.628,115.78,191.355,145.09,182.265z"/>
			</g>
		</g>
		<g>
			<g>
				<path style="fill:#EBEBEB;" d="M143.562,175.485c30.387-4.392,57.885-8.366,77.817-11.247
					c9.936-1.486,17.979-2.689,23.565-3.525c2.764-0.434,4.915-0.772,6.4-1.006c0.715-0.121,1.266-0.214,1.661-0.281
					c0.374-0.067,0.564-0.108,0.563-0.12c-0.002-0.012-0.196,0.005-0.573,0.049c-0.397,0.051-0.951,0.123-1.671,0.216
					c-1.488,0.21-3.644,0.515-6.414,0.906c-5.586,0.831-13.63,2.028-23.568,3.507c-19.905,3.063-47.366,7.288-77.711,11.958
					c-30.327,4.691-57.796,8.895-77.7,11.819c-9.952,1.464-18.011,2.611-23.588,3.361c-2.788,0.375-4.956,0.652-6.428,0.82
					s-2.25,0.229-2.258,0.173c-0.008-0.056,0.753-0.225,2.211-0.493c1.457-0.269,3.611-0.637,6.388-1.092
					c5.553-0.91,13.596-2.165,23.542-3.67C85.686,183.848,113.187,179.851,143.562,175.485z"/>
			</g>
		</g>
		<g>
			<g>
				<path style="fill:#EBEBEB;" d="M143.112,168.549c30.7,0.372,58.482,0.708,78.62,0.952c10.046,0.074,18.179,0.133,23.826,0.175
					c2.798,0,4.975,0.001,6.478,0.001c0.726-0.008,1.284-0.014,1.685-0.019c0.38-0.008,0.574-0.018,0.574-0.03
					c0-0.012-0.194-0.025-0.574-0.039c-0.4-0.011-0.959-0.025-1.684-0.044c-1.503-0.023-3.68-0.056-6.478-0.098
					c-5.647-0.045-13.78-0.109-23.826-0.188c-20.139-0.063-47.923-0.15-78.625-0.246c-30.687-0.073-58.476-0.183-78.593-0.382
					c-10.058-0.097-18.198-0.213-23.824-0.336c-2.813-0.061-4.997-0.124-6.477-0.185c-1.481-0.061-2.258-0.121-2.258-0.176
					c0-0.055,0.778-0.103,2.26-0.142c1.482-0.039,3.666-0.068,6.479-0.086c5.627-0.037,13.768-0.029,23.826,0.027
					C84.64,167.841,112.427,168.154,143.112,168.549z"/>
			</g>
		</g>
		<g>
			<g>
				<path style="fill:#EBEBEB;" d="M143.741,161.623c30.269,5.14,57.661,9.791,77.516,13.162c9.913,1.633,17.937,2.955,23.51,3.872
					c2.764,0.434,4.915,0.772,6.4,1.005c0.718,0.104,1.271,0.184,1.668,0.242c0.376,0.051,0.57,0.07,0.572,0.058
					c0.002-0.012-0.188-0.055-0.56-0.129c-0.394-0.073-0.943-0.175-1.657-0.307c-1.481-0.257-3.626-0.628-6.383-1.105
					c-5.572-0.922-13.596-2.25-23.507-3.89c-19.885-3.189-47.319-7.59-77.633-12.452c-30.304-4.836-57.739-9.259-77.58-12.581
					c-9.921-1.659-17.944-3.039-23.482-4.035c-2.769-0.498-4.917-0.9-6.37-1.191c-1.453-0.291-2.212-0.472-2.202-0.528
					c0.009-0.055,0.786,0.017,2.255,0.208c1.47,0.191,3.633,0.501,6.415,0.92c5.564,0.837,13.605,2.109,23.533,3.727
					C86.09,151.832,113.49,156.462,143.741,161.623z"/>
			</g>
		</g>
		<g>
			<g>
				<path style="fill:#EBEBEB;" d="M145.447,154.88c29.082,9.844,55.399,18.752,74.475,25.209
					c9.532,3.173,17.248,5.742,22.607,7.526c2.661,0.864,4.732,1.536,6.162,2c0.693,0.216,1.226,0.382,1.609,0.501
					c0.364,0.109,0.552,0.159,0.556,0.147c0.004-0.012-0.177-0.085-0.533-0.216c-0.378-0.134-0.904-0.321-1.588-0.564
					c-1.423-0.487-3.482-1.192-6.13-2.097c-5.357-1.788-13.072-4.363-22.601-7.544c-19.135-6.28-45.534-14.945-74.705-24.519
					c-29.164-9.546-55.561-18.233-74.632-24.639c-9.536-3.201-17.242-5.827-22.553-7.684c-2.656-0.928-4.713-1.663-6.102-2.18
					c-1.389-0.517-2.11-0.816-2.091-0.87c0.018-0.054,0.773,0.14,2.195,0.559c1.421,0.42,3.509,1.066,6.19,1.917
					c5.363,1.702,13.104,4.224,22.653,7.385C90.059,136.13,116.388,145.018,145.447,154.88z"/>
			</g>
		</g>
		<g>
			<g>
				<path style="fill:#EBEBEB;" d="M148.192,148.497c27.172,14.295,51.761,27.232,69.583,36.608
					c8.914,4.634,16.13,8.385,21.141,10.99c2.492,1.272,4.431,2.262,5.77,2.946c0.65,0.323,1.151,0.571,1.509,0.749
					c0.342,0.165,0.52,0.244,0.525,0.233c0.006-0.011-0.161-0.111-0.493-0.296c-0.352-0.191-0.842-0.459-1.479-0.806
					c-1.328-0.704-3.251-1.724-5.723-3.035c-5.009-2.609-12.222-6.365-21.133-11.006c-17.907-9.214-42.613-21.927-69.913-35.975
					c-27.297-14.019-51.997-26.754-69.823-36.08c-8.914-4.661-16.11-8.467-21.064-11.135c-2.477-1.334-4.394-2.383-5.684-3.112
					c-1.291-0.728-1.956-1.136-1.93-1.185c0.026-0.05,0.741,0.261,2.078,0.9c1.337,0.639,3.296,1.606,5.81,2.869
					c5.028,2.526,12.275,6.235,21.208,10.86C96.441,121.269,121.045,134.188,148.192,148.497z"/>
			</g>
		</g>
		<g>
			<g>
				<path style="fill:#EBEBEB;" d="M151.904,142.622c24.603,18.367,46.867,34.988,63.005,47.036
					c8.08,5.971,14.62,10.804,19.163,14.16c2.262,1.646,4.023,2.927,5.238,3.811c0.592,0.42,1.048,0.744,1.374,0.976
					c0.312,0.217,0.475,0.323,0.482,0.313c0.007-0.01-0.142-0.135-0.44-0.37c-0.317-0.244-0.76-0.585-1.335-1.028
					c-1.202-0.903-2.942-2.211-5.179-3.892c-4.54-3.359-11.077-8.197-19.153-14.174c-16.247-11.9-38.662-28.318-63.431-46.461
					c-24.771-18.114-47.176-34.553-63.324-46.551c-8.075-5.997-14.589-10.882-19.064-14.291c-2.238-1.705-3.967-3.041-5.128-3.962
					c-1.161-0.921-1.754-1.428-1.721-1.473c0.034-0.045,0.691,0.373,1.912,1.214c1.221,0.84,3.005,2.102,5.29,3.742
					c4.571,3.281,11.149,8.077,19.249,14.041C105.047,107.639,127.328,124.246,151.904,142.622z"/>
			</g>
		</g>
		<g>
			<g>
				<path style="fill:#EBEBEB;" d="M156.486,137.399c21.447,21.97,40.855,41.852,54.923,56.263
					c7.053,7.155,12.762,12.947,16.727,16.969c1.979,1.978,3.518,3.517,4.582,4.58c0.519,0.507,0.919,0.898,1.205,1.177
					c0.275,0.262,0.419,0.393,0.428,0.384c0.008-0.008-0.119-0.155-0.378-0.433c-0.276-0.291-0.66-0.696-1.159-1.223
					c-1.047-1.079-2.563-2.642-4.511-4.65c-3.962-4.025-9.667-9.821-16.715-16.98c-14.198-14.283-33.786-33.987-55.432-55.762
					c-21.651-21.747-41.227-41.471-55.313-55.834c-7.044-7.18-12.719-13.018-16.61-17.083c-1.946-2.032-3.446-3.621-4.449-4.711
					c-1.003-1.09-1.511-1.683-1.471-1.722c0.04-0.039,0.625,0.477,1.7,1.496c1.075,1.02,2.641,2.543,4.644,4.52
					c4.006,3.952,9.758,9.713,16.831,16.864C115.639,95.554,135.067,115.423,156.486,137.399z"/>
			</g>
		</g>
		<g>
			<g>
				<path style="fill:#EBEBEB;" d="M161.824,132.952c17.768,25.038,33.848,47.697,45.503,64.121
					c5.854,8.164,10.593,14.774,13.884,19.364c1.647,2.262,2.929,4.022,3.814,5.237c0.434,0.582,0.768,1.029,1.008,1.35
					c0.23,0.302,0.353,0.453,0.363,0.446c0.01-0.007-0.094-0.172-0.305-0.487c-0.227-0.33-0.544-0.79-0.955-1.388
					c-0.866-1.229-2.12-3.008-3.732-5.295c-3.288-4.592-8.022-11.205-13.871-19.373c-11.804-16.317-28.089-38.828-46.085-63.704
					c-18.006-24.849-34.276-47.378-45.956-63.757c-5.842-8.189-10.539-14.838-13.751-19.458c-1.606-2.31-2.84-4.113-3.662-5.346
					c-0.822-1.233-1.23-1.897-1.185-1.93c0.046-0.033,0.543,0.568,1.447,1.742c0.904,1.175,2.214,2.923,3.885,5.186
					c3.342,4.527,8.128,11.113,14.003,19.277C127.983,85.262,144.084,107.912,161.824,132.952z"/>
			</g>
		</g>
		<g>
			<g>
				<path style="fill:#EBEBEB;" d="M167.789,129.391c13.635,27.509,25.973,52.403,34.917,70.448
					c4.506,8.979,8.154,16.248,10.687,21.296c1.273,2.491,2.264,4.43,2.948,5.768c0.338,0.642,0.598,1.137,0.785,1.491
					c0.18,0.334,0.278,0.503,0.289,0.497c0.011-0.005-0.066-0.185-0.225-0.529c-0.173-0.361-0.413-0.866-0.726-1.521
					c-0.663-1.349-1.624-3.303-2.858-5.814c-2.529-5.049-6.172-12.321-10.671-21.304c-9.108-17.962-21.674-42.742-35.56-70.125
					c-13.9-27.358-26.448-52.153-35.424-70.157c-4.49-9.001-8.089-16.303-10.539-21.369c-1.225-2.533-2.162-4.506-2.781-5.853
					c-0.618-1.347-0.918-2.067-0.868-2.092c0.05-0.025,0.448,0.646,1.157,1.947c0.709,1.301,1.73,3.233,3.026,5.73
					c2.594,4.993,6.291,12.246,10.818,21.229C141.822,76.997,154.183,101.885,167.789,129.391z"/>
			</g>
		</g>
		<g>
			<g>
				<path style="fill:#EBEBEB;" d="M174.24,126.811c9.136,29.312,17.405,55.837,23.398,75.064
					c3.037,9.576,5.496,17.329,7.203,22.712c0.866,2.661,1.54,4.731,2.005,6.16c0.233,0.687,0.412,1.217,0.54,1.596
					c0.126,0.358,0.196,0.54,0.208,0.536c0.012-0.004-0.035-0.193-0.139-0.558c-0.113-0.384-0.272-0.92-0.477-1.616
					c-0.443-1.437-1.084-3.517-1.908-6.191c-1.703-5.385-4.156-13.139-7.186-22.717c-6.169-19.171-14.681-45.619-24.086-74.846
					c-9.424-29.204-17.915-55.664-23.947-74.856c-3.018-9.595-5.424-17.373-7.045-22.761c-0.811-2.694-1.426-4.791-1.825-6.218
					c-0.399-1.427-0.581-2.186-0.527-2.203c0.054-0.017,0.341,0.708,0.837,2.104c0.496,1.397,1.2,3.465,2.088,6.134
					c1.776,5.339,4.286,13.084,7.344,22.666C156.841,70.983,165.132,97.507,174.24,126.811z"/>
			</g>
		</g>
		<g>
			<g>
				<path style="fill:#EBEBEB;" d="M181.019,125.278c4.411,30.384,8.403,57.88,11.296,77.81c1.492,9.935,2.701,17.977,3.54,23.563
					c0.436,2.763,0.776,4.914,1.01,6.399c0.121,0.715,0.215,1.266,0.282,1.661c0.068,0.374,0.108,0.564,0.12,0.562
					c0.012-0.002-0.005-0.196-0.05-0.573c-0.051-0.397-0.124-0.951-0.217-1.671c-0.211-1.488-0.517-3.644-0.91-6.414
					c-0.835-5.586-2.037-13.629-3.522-23.565c-3.076-19.903-7.318-47.361-12.007-77.704c-4.71-30.323-8.932-57.79-11.868-77.692
					c-1.47-9.951-2.623-18.01-3.376-23.586c-0.377-2.788-0.655-4.955-0.824-6.427c-0.169-1.472-0.23-2.25-0.175-2.258
					c0.056-0.008,0.225,0.753,0.495,2.21c0.27,1.457,0.639,3.611,1.096,6.387c0.914,5.552,2.174,13.595,3.685,23.54
					C172.619,67.408,176.634,94.906,181.019,125.278z"/>
			</g>
		</g>
		<g>
			<g>
				<path style="fill:#EBEBEB;" d="M187.954,124.824c-0.352,30.7-0.671,58.483-0.902,78.621c-0.067,10.046-0.122,18.179-0.16,23.826
					c0.001,2.798,0.002,4.975,0.003,6.478c0.009,0.726,0.015,1.284,0.02,1.685c0.008,0.38,0.019,0.574,0.03,0.574
					c0.012,0,0.024-0.194,0.038-0.574c0.01-0.4,0.025-0.959,0.043-1.684c0.022-1.503,0.053-3.68,0.094-6.478
					c0.041-5.647,0.1-13.78,0.173-23.826c0.05-20.139,0.12-47.923,0.196-78.625c0.054-30.687,0.146-58.476,0.332-78.593
					c0.091-10.059,0.202-18.199,0.321-23.824c0.059-2.813,0.12-4.997,0.181-6.478c0.06-1.481,0.12-2.258,0.175-2.258
					c0.055,0,0.104,0.779,0.143,2.26c0.04,1.482,0.07,3.666,0.09,6.479c0.04,5.627,0.037,13.768-0.012,23.826
					C188.625,66.351,188.329,94.139,187.954,124.824z"/>
			</g>
		</g>
		<g>
			<g>
				<path style="fill:#EBEBEB;" d="M194.881,125.448c-5.12,30.273-9.754,57.668-13.112,77.525
					c-1.626,9.914-2.943,17.94-3.857,23.513c-0.432,2.764-0.769,4.915-1.001,6.4c-0.104,0.718-0.184,1.271-0.241,1.668
					c-0.05,0.376-0.07,0.57-0.058,0.572c0.012,0.002,0.055-0.188,0.128-0.561c0.073-0.394,0.174-0.943,0.306-1.657
					c0.255-1.481,0.625-3.627,1.101-6.384c0.918-5.572,2.241-13.597,3.875-23.51c3.177-19.887,7.559-47.323,12.402-77.642
					c4.817-30.307,9.222-57.744,12.531-77.588c1.652-9.922,3.027-17.946,4.02-23.485c0.496-2.769,0.896-4.917,1.187-6.371
					c0.29-1.453,0.471-2.212,0.526-2.203c0.056,0.009-0.016,0.786-0.207,2.255c-0.19,1.47-0.499,3.633-0.915,6.415
					c-0.833,5.565-2.1,13.607-3.712,23.535C204.634,67.791,200.022,95.195,194.881,125.448z"/>
			</g>
		</g>
		<g>
			<g>
				<path style="fill:#EBEBEB;" d="M201.624,127.15c-9.825,29.088-18.716,55.411-25.16,74.492
					c-3.167,9.534-5.731,17.252-7.511,22.612c-0.862,2.662-1.533,4.733-1.996,6.163c-0.215,0.693-0.381,1.226-0.5,1.609
					c-0.109,0.364-0.158,0.552-0.147,0.556c0.012,0.004,0.085-0.177,0.216-0.533c0.134-0.378,0.321-0.904,0.563-1.588
					c0.486-1.423,1.189-3.483,2.093-6.131c1.785-5.359,4.354-13.075,7.529-22.606c6.268-19.139,14.915-45.544,24.47-74.721
					c9.527-29.171,18.197-55.573,24.59-74.647c3.194-9.538,5.816-17.245,7.669-22.558c0.926-2.656,1.661-4.714,2.177-6.104
					c0.516-1.389,0.814-2.11,0.868-2.092c0.054,0.018-0.139,0.774-0.558,2.195c-0.419,1.422-1.064,3.509-1.913,6.191
					c-1.698,5.364-4.215,13.107-7.37,22.658C220.339,71.749,211.467,98.085,201.624,127.15z"/>
			</g>
		</g>
		<g>
			<g>
				<path style="fill:#EBEBEB;" d="M208.009,129.891c-14.277,27.181-27.198,51.778-36.563,69.607
					c-4.628,8.917-8.375,16.136-10.977,21.148c-1.271,2.493-2.259,4.433-2.942,5.772c-0.322,0.65-0.57,1.151-0.748,1.51
					c-0.165,0.342-0.244,0.52-0.233,0.526c0.011,0.006,0.111-0.161,0.296-0.493c0.191-0.352,0.459-0.842,0.806-1.48
					c0.703-1.328,1.722-3.252,3.031-5.725c2.605-5.01,6.357-12.226,10.992-21.14c9.203-17.913,21.899-42.627,35.929-69.937
					c14.002-27.307,26.72-52.014,36.034-69.846c4.656-8.917,8.457-16.116,11.122-21.072c1.332-2.478,2.38-4.395,3.108-5.686
					c0.728-1.291,1.135-1.956,1.184-1.931c0.049,0.026-0.261,0.741-0.899,2.079c-0.638,1.338-1.604,3.297-2.866,5.812
					c-2.523,5.03-6.227,12.279-10.846,21.214C235.204,78.123,222.3,102.735,208.009,129.891z"/>
			</g>
		</g>
		<g>
			<g>
				<path style="fill:#EBEBEB;" d="M213.886,133.599c-18.351,24.614-34.958,46.889-46.996,63.035
					c-5.965,8.084-10.794,14.628-14.148,19.172c-1.645,2.263-2.924,4.025-3.808,5.241c-0.42,0.592-0.743,1.048-0.975,1.374
					c-0.216,0.312-0.322,0.475-0.313,0.483c0.01,0.007,0.135-0.142,0.369-0.441c0.244-0.318,0.585-0.761,1.027-1.336
					c0.902-1.202,2.209-2.944,3.888-5.181c3.357-4.542,8.191-11.083,14.161-19.162c11.89-16.255,28.293-38.68,46.42-63.46
					c18.098-24.782,34.523-47.198,46.51-63.354c5.992-8.079,10.872-14.596,14.279-19.074c1.703-2.239,3.039-3.969,3.959-5.13
					c0.921-1.162,1.426-1.755,1.472-1.722c0.045,0.033-0.373,0.691-1.212,1.913c-0.839,1.222-2.099,3.006-3.738,5.293
					c-3.278,4.574-8.07,11.155-14.029,19.258C248.839,86.719,232.248,109.011,213.886,133.599z"/>
			</g>
		</g>
		<g>
			<g>
				<path style="fill:#EBEBEB;" d="M219.113,138.178c-21.956,21.461-41.826,40.882-56.228,54.959
					c-7.15,7.057-12.938,12.771-16.958,16.738c-1.977,1.98-3.515,3.521-4.577,4.585c-0.507,0.52-0.897,0.919-1.177,1.206
					c-0.262,0.275-0.393,0.419-0.384,0.428c0.008,0.008,0.155-0.12,0.433-0.378c0.29-0.276,0.696-0.661,1.222-1.16
					c1.078-1.047,2.64-2.564,4.647-4.514c4.022-3.965,9.814-9.674,16.969-16.726c14.274-14.208,33.966-33.808,55.726-55.467
					c21.733-21.665,41.444-41.253,55.799-55.348c7.176-7.049,13.01-12.727,17.072-16.621c2.031-1.947,3.618-3.448,4.709-4.452
					c1.09-1.004,1.682-1.512,1.721-1.472c0.039,0.04-0.476,0.625-1.495,1.701c-1.019,1.076-2.542,2.643-4.517,4.647
					c-3.949,4.008-9.707,9.763-16.854,16.842C260.932,97.304,241.075,116.745,219.113,138.178z"/>
			</g>
		</g>
		<g>
			<g>
				<path style="fill:#EBEBEB;" d="M223.563,143.513c-25.027,17.785-47.675,33.879-64.092,45.544
					c-8.161,5.859-14.767,10.603-19.355,13.897c-2.26,1.648-4.02,2.931-5.234,3.817c-0.581,0.434-1.029,0.769-1.35,1.009
					c-0.301,0.23-0.453,0.354-0.446,0.363c0.007,0.01,0.172-0.094,0.487-0.306c0.33-0.227,0.79-0.544,1.388-0.956
					c1.228-0.867,3.007-2.122,5.292-3.736c4.59-3.291,11.2-8.03,19.365-13.883c16.309-11.815,38.811-28.114,63.675-46.126
					c24.838-18.022,47.356-34.306,63.728-45.996c8.185-5.847,14.831-10.549,19.449-13.763c2.309-1.607,4.111-2.843,5.344-3.666
					c1.233-0.822,1.897-1.231,1.929-1.186c0.033,0.045-0.568,0.543-1.742,1.448c-1.174,0.905-2.922,2.216-5.184,3.888
					c-4.524,3.345-11.107,8.135-19.268,14.016C271.231,109.641,248.592,125.757,223.563,143.513z"/>
			</g>
		</g>
		<g>
			<g>
				<path style="fill:#EBEBEB;" d="M227.128,149.476c-27.5,13.652-52.386,26.007-70.425,34.962
					c-8.976,4.512-16.243,8.164-21.289,10.7c-2.49,1.275-4.428,2.267-5.766,2.952c-0.642,0.338-1.137,0.599-1.491,0.785
					c-0.334,0.18-0.503,0.279-0.497,0.289c0.005,0.011,0.185-0.066,0.529-0.226c0.361-0.173,0.866-0.414,1.52-0.727
					c1.349-0.664,3.302-1.626,5.812-2.862c5.048-2.533,12.317-6.179,21.297-10.685c17.956-9.12,42.728-21.702,70.102-35.605
					c27.349-13.918,52.136-26.482,70.134-35.469c8.998-4.495,16.298-8.1,21.362-10.552c2.532-1.226,4.505-2.165,5.851-2.785
					c1.346-0.619,2.066-0.919,2.091-0.869c0.025,0.05-0.645,0.449-1.946,1.159c-1.301,0.71-3.232,1.732-5.728,3.03
					c-4.992,2.597-12.242,6.299-21.222,10.832C279.505,123.475,254.625,135.852,227.128,149.476z"/>
			</g>
		</g>
		<g>
			<g>
				<path style="fill:#EBEBEB;" d="M229.712,155.925c-29.306,9.156-55.826,17.441-75.049,23.446
					c-9.574,3.044-17.325,5.507-22.707,7.218c-2.66,0.868-4.73,1.543-6.159,2.009c-0.687,0.233-1.216,0.413-1.596,0.541
					c-0.358,0.126-0.54,0.196-0.536,0.208c0.004,0.012,0.192-0.035,0.558-0.139c0.384-0.114,0.92-0.272,1.616-0.478
					c1.436-0.443,3.517-1.086,6.19-1.911c5.384-1.707,13.136-4.165,22.713-7.201c19.167-6.182,45.61-14.71,74.83-24.134
					c29.198-9.443,55.653-17.952,74.841-23.995c9.594-3.024,17.369-5.435,22.756-7.06c2.693-0.813,4.789-1.429,6.217-1.829
					c1.427-0.4,2.185-0.582,2.202-0.529c0.017,0.054-0.708,0.342-2.104,0.838c-1.396,0.497-3.464,1.202-6.133,2.092
					c-5.338,1.78-13.081,4.295-22.662,7.358C285.529,138.49,259.011,146.798,229.712,155.925z"/>
			</g>
		</g>
		<g>
			<g>
				<path style="fill:#EBEBEB;" d="M231.25,162.703c-30.381,4.431-57.874,8.44-77.803,11.346c-9.934,1.499-17.976,2.712-23.56,3.555
					c-2.763,0.438-4.914,0.779-6.398,1.014c-0.715,0.122-1.266,0.216-1.661,0.283c-0.374,0.068-0.564,0.109-0.562,0.121
					c0.002,0.012,0.196-0.005,0.573-0.05c0.397-0.052,0.951-0.124,1.671-0.218c1.488-0.212,3.644-0.519,6.414-0.914
					c5.585-0.839,13.628-2.046,23.563-3.537c19.901-3.088,47.357-7.349,77.696-12.057c30.32-4.73,57.784-8.969,77.685-11.918
					c9.95-1.477,18.008-2.634,23.584-3.392c2.788-0.379,4.955-0.658,6.427-0.828c1.472-0.17,2.249-0.232,2.258-0.176
					c0.008,0.056-0.753,0.226-2.21,0.496c-1.457,0.27-3.61,0.642-6.386,1.1c-5.552,0.917-13.594,2.183-23.537,3.7
					C289.114,154.266,261.619,158.298,231.25,162.703z"/>
			</g>
		</g>
	</g>
	<g>
		<g>
			<g>
				<g>
					<g>
						<g>
							<path style="fill:#EBEBEB;" d="M104.344,370.346c5.743-2.963,12.505-3.348,18.881-2.295c3.425,0.566,6.996,1.591,9.327,4.164
								c2.331,2.573,2.772,7.101,0.096,9.312c-1.593,1.316-3.815,1.516-5.881,1.492c-4.991-0.058-10.529-0.937-14.517,2.066
								c-2.275,1.713-3.789,4.562-6.509,5.404c-2.661,0.825-5.664-0.746-7.075-3.148c-1.411-2.402-1.458-5.404-0.8-8.111
								C97.866,379.231,98.559,373.331,104.344,370.346z"/>
						</g>
					</g>
				</g>
			</g>
			<g>
				<g>
					<g>
						<g>
							<path style="fill:#EBEBEB;" d="M91.186,344.946c3.512,5.016,10.337,3.355,13.502,0.294c3.165-3.062,4.502-7.498,5.72-11.73
								c2.782-9.668,5.587-19.809,3.518-29.654c-0.618-2.943-1.719-5.879-3.787-8.062c-2.068-2.184-5.249-3.483-8.156-2.714
								c-3.441,0.909-5.58,4.28-7.126,7.486c-4.544,9.425-6.95,19.873-6.985,30.336C87.854,335.788,88.43,340.912,91.186,344.946"/>
						</g>
					</g>
				</g>
			</g>
			<g>
				<g>
					<g>
						<g>
							<path style="fill:#EBEBEB;" d="M81.543,352.143c3.813-4.525,4.536-11.125,2.84-16.794c-1.697-5.669-5.53-10.492-9.947-14.429
								c-5.179-4.616-11.268-8.208-17.812-10.51c-2.576-0.906-5.293-1.62-8.011-1.361c-2.718,0.259-5.455,1.649-6.723,4.067
								c-1.875,3.575-0.077,7.912,1.867,11.45c3.425,6.233,7.34,12.196,11.699,17.816c3.506,4.521,7.523,8.98,12.868,11.023
								c5.344,2.043,10.896,1.803,13.728-1.904"/>
						</g>
					</g>
				</g>
			</g>
			<g>
				<g>
					<g>
						<g>
							<g>
								<path style="fill:#E0E0E0;" d="M90.949,420.605c0.066,0.004,0.172-0.809,0.318-2.279c0.161-1.659,0.364-3.742,0.605-6.22
									c0.29-2.617,0.672-5.732,1.399-9.123c0.725-3.383,1.859-7.049,3.316-10.767c1.509-3.696,3.348-7.056,5.498-9.743
									c2.135-2.699,4.617-4.652,6.951-5.779c2.326-1.149,4.412-1.616,5.854-1.823c1.454-0.149,2.268-0.264,2.269-0.328
									c0.001-0.065-0.815-0.075-2.309-0.035c-1.48,0.099-3.653,0.474-6.104,1.588c-2.46,1.091-5.093,3.074-7.333,5.829
									c-2.257,2.743-4.164,6.177-5.699,9.939c-1.482,3.784-2.6,7.488-3.292,10.944c-0.69,3.451-1.006,6.599-1.213,9.238
									c-0.198,2.641-0.272,4.78-0.308,6.258C90.868,419.782,90.885,420.601,90.949,420.605z"/>
							</g>
						</g>
					</g>
				</g>
			</g>
			<g>
				<g>
					<g>
						<g>
							<g>
								<path style="fill:#E0E0E0;" d="M91.377,415.819c0.032-0.002,0.052-0.366,0.061-1.058c-0.002-0.795-0.005-1.796-0.008-3.024
									c-0.007-2.624-0.006-6.422,0.135-11.112c0.232-9.38,1.04-19.474,2.6-33.706c1.477-13.382,3.46-28.956,5.552-39.082
									c0.449-2.303,0.901-4.375,1.326-6.19c0.406-1.819,0.752-3.387,1.086-4.656c0.287-1.194,0.521-2.167,0.707-2.939
									c0.152-0.675,0.216-1.035,0.185-1.044c-0.031-0.009-0.157,0.333-0.367,0.992c-0.23,0.761-0.521,1.72-0.878,2.898
									c-0.39,1.257-0.789,2.815-1.244,4.626c-0.475,1.807-0.973,3.874-1.465,6.174c-2.07,9.175-4.262,21.998-5.837,36.264
									c-1.563,14.261-2.267,27.246-2.329,36.65c-0.056,4.702,0.044,8.507,0.164,11.134c0.075,1.228,0.136,2.228,0.185,3.022
									C91.302,415.459,91.345,415.821,91.377,415.819z"/>
							</g>
						</g>
					</g>
				</g>
			</g>
			<g>
				<g>
					<g>
						<g>
							<g>
								<path style="fill:#E0E0E0;" d="M91.44,390.774c0.065-0.002,0.054-1.125-0.022-3.159c-0.116-2.03-0.395-4.964-0.967-8.558
									c-0.606-3.586-1.453-7.843-2.784-12.47c-0.576-2.115-1.932-7.183-5.214-14.755c-4.325-10.26-10.201-18.649-15.313-23.845
									c-1.199-1.379-2.535-2.374-3.603-3.349c-0.553-0.467-1.041-0.933-1.539-1.302c-0.5-0.345-0.966-0.666-1.397-0.963
									c-1.683-1.15-2.625-1.757-2.66-1.703c-0.151,0.205,3.768,2.512,8.717,7.777c4.929,5.254,10.641,13.584,14.931,23.758
									c2.392,5.518,4.061,10.44,5.244,14.619c1.368,4.581,2.276,8.796,2.962,12.346c0.652,3.558,1.03,6.463,1.258,8.474
									C91.24,389.659,91.376,390.776,91.44,390.774z"/>
							</g>
						</g>
					</g>
				</g>
			</g>
		</g>
		<g>
			<g>
				<g>
					<g>
						<polygon style="fill:#E0E0E0;" points="67.233,434.954 69.742,469.336 113.911,469.336 116.421,434.954 						"/>
					</g>
				</g>
			</g>
		</g>
		<g>
			<g>
				<g>
					<g>
						<rect x="62.966" y="421.402" style="fill:#E0E0E0;" width="58.725" height="13.552"/>
					</g>
				</g>
			</g>
		</g>
		<g>
			<g>
				<g>
					<g>
						<polygon style="fill:#EBEBEB;" points="62.966,468.02 62.966,471.776 65.726,471.776 120.721,471.776 120.721,468.02 						
							"/>
					</g>
				</g>
			</g>
		</g>
		<g>
			<g>
				<g>
					<g>
						<polygon style="fill:#E0E0E0;" points="68.43,478.388 65.726,471.776 118.617,471.776 115.462,478.388 						"/>
					</g>
				</g>
			</g>
		</g>
		<g>
			<g>
				<g>
					<g>
						<g>
							<path style="fill:#F5F5F5;" d="M115.601,446.19c0.01,0.008-0.06,0.115-0.206,0.316c-0.175,0.233-0.392,0.521-0.66,0.876
								c-0.627,0.803-1.489,1.905-2.573,3.293l-0.114,0.146l-0.111-0.153c-1.617-2.237-3.778-5.225-6.322-8.743h0.364
								c-1.88,2.662-3.975,5.628-6.224,8.812l-0.195,0.276l-0.218-0.26c-2.297-2.733-4.791-5.701-7.381-8.782l0.425-0.005
								c-0.128,0.161-0.267,0.336-0.406,0.51c-2.289,2.87-4.504,5.647-6.6,8.274l-0.22,0.276l-0.203-0.287
								c-2.241-3.171-4.334-6.132-6.227-8.81l0.362,0.017c-3.069,3.496-5.671,6.462-7.669,8.737l-0.136,0.155l-0.104-0.175
								c-1.011-1.698-1.817-3.053-2.401-4.034c-0.251-0.438-0.454-0.792-0.616-1.074c-0.136-0.245-0.2-0.376-0.188-0.383
								c0.012-0.007,0.099,0.109,0.257,0.341c0.179,0.272,0.404,0.612,0.682,1.034c0.614,0.964,1.46,2.293,2.521,3.96l-0.24-0.019
								c1.965-2.303,4.526-5.305,7.546-8.844l0.19-0.223l0.172,0.24c1.91,2.666,4.022,5.615,6.283,8.77l-0.423-0.011
								c2.09-2.63,4.3-5.412,6.584-8.286c0.139-0.175,0.278-0.349,0.406-0.51l0.21-0.263l0.216,0.258
								c2.583,3.087,5.07,6.061,7.361,8.799l-0.413,0.017c2.271-3.168,4.387-6.119,6.286-8.768l0.184-0.257l0.18,0.257
								c2.49,3.556,4.605,6.577,6.188,8.838l-0.225-0.007c1.128-1.352,2.024-2.427,2.677-3.209c0.291-0.336,0.526-0.609,0.717-0.83
								C115.501,446.274,115.591,446.182,115.601,446.19z"/>
						</g>
					</g>
				</g>
			</g>
		</g>
		<g>
			<g>
				<g>
					<g>
						<g>
							<path style="fill:#F5F5F5;" d="M117.036,434.727c0,0.152-11.067,0.275-24.716,0.275c-13.654,0-24.719-0.123-24.719-0.275
								c0-0.152,11.065-0.275,24.719-0.275C105.968,434.452,117.036,434.575,117.036,434.727z"/>
						</g>
					</g>
				</g>
			</g>
		</g>
		<g>
			<g>
				<g>
					<g>
						<g>
							<path style="fill:#F5F5F5;" d="M119.267,472.147c0,0.152-12.028,0.275-26.862,0.275c-14.839,0-26.865-0.123-26.865-0.275
								s12.025-0.275,26.865-0.275C107.239,471.872,119.267,471.995,119.267,472.147z"/>
						</g>
					</g>
				</g>
			</g>
		</g>
	</g>
</g>
<g id="Background_Simple" style="display:none;">
	<path style="display:inline;fill:#F5F5F5;" d="M407.318,114.928l-2.065-3.403c-17.41-28.69-48.887-45.984-82.074-43.886
		c-4.266,0.27-8.514,0.847-12.705,1.744c-30.174,6.459-56.429,29.277-67.312,58.5c-6.4,17.187-8.188,36.975-20.334,50.617
		c-15.807,17.754-42.643,18.312-66.238,17.576c-23.594-0.736-50.449-0.108-66.179,17.716c-9.852,11.163-12.982,27.038-12.188,41.987
		c2.103,39.58,29.683,74.97,64.757,92.561c35.075,17.591,76.371,19.166,114.758,11.428c53.776-10.84,104.916-40.61,135.655-86.59
		C424.133,227.199,431.912,164.555,407.318,114.928z"/>
</g>
<g id="Character">
	<g>
		<path style="fill:#263238;" d="M317.116,269.599c-6.84-6.599-22.517-4.51-25.947,0.352c-5.654-2.482-13.069,0.537-15.383,6.261
			c-5.503,1.588-11.007,3.176-16.51,4.764c-2.816,0.812-5.76,1.699-7.83,3.774c-2.07,2.075-2.861,5.739-0.899,7.916
			c-5.8,1.922-7.537,10.86-2.879,14.814c-2.243,2.691-1.458,7.322,1.546,9.124c-4.26,5.848-7.511,12.428-9.567,19.364
			c-0.86,2.903-1.493,6.118-0.257,8.882c1.236,2.763,5.091,4.47,7.424,2.541c-1.522,2.402-1.449,5.715,0.177,8.048
			c-2.829,0.255-3.386,4.692-1.303,6.624c2.083,1.932,5.26,1.941,8.089,1.689c2.83-0.252,5.891-0.601,8.324,0.865
			c-0.048,0.853-0.346,1.431-0.807,1.858c-4.608,4.276-5.54,11.183-1.557,16.046c0.369,0.45,0.713,0.867,1.016,1.241
			c1.796,2.222,5.998,4.09,8.612,5.242c6.628,2.92,10.403,2.038,17.624,2.602c-1.648,4.741,10.64,14.198,23.278,3.281
			c26.997,5.384,46.3,6.835,73.774,5.104c3.92-0.247,8.597-1.087,10.104-4.714c3.233,0.634,6.567-1.068,8.764-3.523
			c2.197-2.455,3.475-5.575,4.712-8.629c6.667-2.266,11.465-9.154,11.28-16.194c4.363-3.892,6.965-9.686,6.975-15.533
			c6.467-2.445,9.542-11.246,6.003-17.186c-1.95-7.994-5.233-15.662-9.671-22.591c4.43-1.266,5.723-7.437,3.599-11.526
			c-2.124-4.089-6.391-6.527-10.431-8.741c3.418,0.674,6.069-3.738,5.047-7.069c-1.022-3.331-4.218-5.464-7.316-7.057
			c-4.54-2.335-9.365-4.118-14.332-5.297c-1.987-5.81-9.987-12.048-15.698-14.305C360.043,248.523,344.215,246.876,317.116,269.599"
			/>
		<g>
			<g>
				<g>
					<g>
						<path style="fill:#455A64;" d="M382.609,351.818c0.742-0.959,1.849-1.892,3.021-2.401l-0.247,0.007
							c0.221-0.082,0.449-0.13,0.677-0.178c0.866-0.288,1.749-0.323,2.537,0.085l-0.024,0.001c1.42,0.383,2.722,1.281,3.502,2.536
							c1.359,2.184,1.192,5.141-0.178,7.318c-1.191,1.891-3.408,3.26-5.618,2.929c-2.031-0.304-3.667-1.975-4.406-3.89
							C381.064,356.128,381.234,353.595,382.609,351.818z"/>
					</g>
				</g>
			</g>
			<g>
				<g>
					<g>
						<path style="fill:#876760;" d="M382.117,308.086c-2.79-15.263-15.213-32.923-30.343-29.487l-46.411,17.76
							c-4.597,1.044-7.63,5.431-6.984,10.1l13.757,102.319c1.793,13.332,12.72,23.562,26.141,24.473h0
							c17.194,1.167,31.432-13.174,30.149-30.359c-0.527-7.062-0.908-12.368-0.902-12.335c0,0,19.259-5.589,20.293-31.703
							C388.333,345.867,385.216,325.043,382.117,308.086z"/>
						<g>
							<g>
								<g>
									<g>
										<g>
											<g>
												<g>
													<g>
														<g>
															<g>
																<g>
																	<g>
																		<g>
																			<g>
																				<g>
																					<g>
																						<g>
																							<g>
																								<g>
																									<g>
																										<g>
																											<path style="fill:#263238;" d="M374.449,329.683c0.267,1.729-0.977,3.38-2.777,3.692
																												c-1.796,0.311-3.472-0.833-3.74-2.563c-0.267-1.728,0.977-3.382,2.773-3.693
																												C372.505,326.807,374.182,327.954,374.449,329.683z"/>
																										</g>
																									</g>
																								</g>
																							</g>
																						</g>
																					</g>
																				</g>
																			</g>
																		</g>
																	</g>
																</g>
															</g>
															<g>
																<g>
																	<g>
																		<g>
																			<g>
																				<g>
																					<g>
																						<g>
																							<g>
																								<g>
																									<g>
																										<g>
																											<g>
																												<path style="fill:#263238;" d="M378.87,319.495c-0.356,0.477-3.065-1.071-6.602-0.643
																													c-3.538,0.377-5.919,2.505-6.354,2.117c-0.212-0.17,0.113-0.993,1.145-1.95
																													c1.015-0.951,2.819-1.973,5.024-2.225c2.205-0.249,4.155,0.343,5.318,1.047
																													C378.588,318.548,379.049,319.28,378.87,319.495z"/>
																											</g>
																										</g>
																									</g>
																								</g>
																							</g>
																						</g>
																					</g>
																				</g>
																			</g>
																		</g>
																	</g>
																</g>
															</g>
														</g>
														<g>
															<g>
																<g>
																	<g>
																		<g>
																			<g>
																				<g>
																					<g>
																						<g>
																							<g>
																								<g>
																									<g>
																										<g>
																											<path style="fill:#263238;" d="M342.585,332.862c0.267,1.729-0.977,3.38-2.777,3.692
																												c-1.796,0.311-3.472-0.834-3.739-2.562c-0.267-1.729,0.977-3.382,2.773-3.694
																												C340.643,329.986,342.319,331.133,342.585,332.862z"/>
																										</g>
																									</g>
																								</g>
																							</g>
																						</g>
																					</g>
																				</g>
																			</g>
																		</g>
																	</g>
																</g>
															</g>
															<g>
																<g>
																	<g>
																		<g>
																			<g>
																				<g>
																					<g>
																						<g>
																							<g>
																								<g>
																									<g>
																										<g>
																											<g>
																												<path style="fill:#263238;" d="M344.179,324.274c-0.358,0.477-3.07-1.07-6.603-0.642
																													c-3.538,0.377-5.919,2.504-6.354,2.116c-0.21-0.17,0.109-0.992,1.146-1.949
																													c1.015-0.952,2.818-1.973,5.023-2.225c2.205-0.248,4.154,0.343,5.319,1.047
																													C343.892,323.327,344.355,324.058,344.179,324.274z"/>
																											</g>
																										</g>
																									</g>
																								</g>
																							</g>
																						</g>
																					</g>
																				</g>
																			</g>
																		</g>
																	</g>
																</g>
															</g>
														</g>
														<g>
															<g>
																<g>
																	<g>
																		<g>
																			<g>
																				<g>
																					<g>
																						<g>
																							<g>
																								<g>
																									<g>
																										<g>
																											<path style="fill:#263238;" d="M360.123,348.987c-0.04-0.199,2.113-0.839,5.623-1.717
																												c0.892-0.2,1.726-0.481,1.805-1.115c0.136-0.679-0.357-1.606-0.92-2.606
																												c-1.108-2.085-2.268-4.271-3.486-6.561c-4.869-9.353-8.509-17.088-8.13-17.28
																												c0.378-0.193,4.633,7.232,9.502,16.585c1.178,2.309,2.305,4.51,3.378,6.616
																												c0.464,0.986,1.19,2.081,0.889,3.49c-0.164,0.703-0.768,1.272-1.329,1.496
																												c-0.558,0.245-1.065,0.315-1.509,0.395C362.383,348.907,360.16,349.186,360.123,348.987z"/>
																										</g>
																									</g>
																								</g>
																							</g>
																						</g>
																					</g>
																				</g>
																			</g>
																		</g>
																	</g>
																</g>
															</g>
														</g>
														<g>
															<g>
																<g>
																	<g>
																		<g>
																			<g>
																				<g>
																					<g>
																						<g>
																							<g>
																								<g>
																									<g>
																										<path style="fill:#664D49;" d="M367.525,390.556c0,0-17.112,3.155-35.413-5.091
																											c0,0,10.414,16.621,35.784,11.184L367.525,390.556z"/>
																									</g>
																								</g>
																							</g>
																						</g>
																					</g>
																				</g>
																			</g>
																		</g>
																	</g>
																</g>
															</g>
														</g>
														<g>
															<g>
																<g>
																	<g>
																		<g>
																			<g>
																				<g>
																					<g>
																						<g>
																							<g>
																								<g>
																									<g>
																										<path style="fill:#664D49;" d="M360.595,357.46c-1.998-2.217-4.969-3.369-7.616-2.952
																											c-1.836,0.289-3.541,1.355-4.354,3.084c-0.814,1.727-0.588,4.133,0.762,5.706
																											c1.521,1.772,4.044,2.105,5.985,1.385c1.941-0.721,3.428-2.284,4.827-3.838
																											c0.387-0.43,0.781-0.878,0.962-1.456c0.182-0.577,0.101-1.321-0.351-1.778"/>
																									</g>
																								</g>
																							</g>
																						</g>
																					</g>
																				</g>
																			</g>
																		</g>
																	</g>
																</g>
															</g>
														</g>
														<g>
															<g>
																<g>
																	<g>
																		<g>
																			<g>
																				<g>
																					<g>
																						<g>
																							<g>
																								<g>
																									<g>
																										<g>
																											<path style="fill:#263238;" d="M350.003,352.666c0.571-0.101,1.033,3.737,4.643,6.073
																												c3.604,2.346,7.646,1.43,7.74,1.963c0.082,0.235-0.823,0.854-2.545,1.105
																												c-1.688,0.259-4.227,0.008-6.435-1.421c-2.203-1.434-3.329-3.562-3.647-5.121
																												C349.422,353.678,349.737,352.676,350.003,352.666z"/>
																										</g>
																									</g>
																								</g>
																							</g>
																						</g>
																					</g>
																				</g>
																			</g>
																		</g>
																	</g>
																</g>
															</g>
														</g>
													</g>
												</g>
											</g>
											<g>
												<g>
													<g>
														<g>
															<g>
																<g>
																	<g>
																		<g>
																			<g>
																				<g>
																					<g>
																						<g>
																							<path style="fill:#263238;" d="M344.016,309.526c-0.235,1.003-3.821,0.966-7.911,1.957
																								c-4.112,0.91-7.314,2.521-7.967,1.723c-0.294-0.383,0.182-1.357,1.425-2.449
																								c1.231-1.089,3.266-2.226,5.725-2.798c2.459-0.568,4.787-0.442,6.371-0.007
																								C343.256,308.387,344.112,309.052,344.016,309.526z"/>
																						</g>
																					</g>
																				</g>
																			</g>
																		</g>
																	</g>
																</g>
															</g>
														</g>
													</g>
												</g>
											</g>
											<g>
												<g>
													<g>
														<g>
															<g>
																<g>
																	<g>
																		<g>
																			<g>
																				<g>
																					<g>
																						<g>
																							<path style="fill:#263238;" d="M376.183,307.47c-0.527,0.877-3.062,0.332-5.997,0.639
																								c-2.945,0.205-5.348,1.181-6.018,0.408c-0.299-0.379-0.003-1.229,0.991-2.119
																								c0.979-0.884,2.692-1.715,4.714-1.893c2.02-0.174,3.851,0.347,4.968,1.049
																								C375.973,306.258,376.411,307.045,376.183,307.47z"/>
																						</g>
																					</g>
																				</g>
																			</g>
																		</g>
																	</g>
																</g>
															</g>
														</g>
													</g>
												</g>
											</g>
										</g>
									</g>
								</g>
							</g>
						</g>
					</g>
				</g>
			</g>
		</g>
		<g>
			<path style="fill:#263238;" d="M394.583,319.597c-0.54-4.012-2.105-8.018-5.08-10.763c-1.631-1.504-3.636-2.592-5.106-4.254
				c-3.174-3.59-3.151-8.9-4.719-13.427c-2.022-5.836-7.04-10.543-12.993-12.188c-4.954-1.369-10.404-0.736-15.108-2.806
				c-3.477-1.531-6.25-4.426-9.812-5.748c-6.935-2.575-14.468,1.439-20.53,5.68c-0.888,5.126,2.618,9.249,5.994,13.207
				c3.376,3.958,8.56,6.309,13.761,6.24c4.036-0.053,8.661-1.305,11.697,1.354c3.193,2.797,2.431,8.195,5.127,11.474
				c3.854,4.686,11.659,2.223,17.106,4.894c4.206,2.063,6.256,6.765,8.595,10.824c2.339,4.059,6.173,8.191,10.824,7.627
				C394.732,327.68,395.123,323.608,394.583,319.597z"/>
		</g>
		<path style="fill:#263238;" d="M331.936,284.519c-11.754,0.683-23.369,3.671-33.994,8.744c-3.167,1.512-6.42,3.377-8.06,6.479
			c-1.442,2.727-1.402,5.979-1.14,9.053c0.821,9.627,5.567,21.136,9.895,29.775l12.561,6.318c9.105-2.873,3.675-18.558,2.638-26.544
			c6.258-3.313,10.268-10.464,9.832-17.531C328.714,297.027,331.86,290.827,331.936,284.519z"/>
		<g>
			<g>
				<g>
					<g>
						<g>
							<g>
								<g>
									<g>
										<g>
											<g>
												<g>
													<g>
														<g>
															<path style="fill:#876760;" d="M310.777,341.438c-0.769-5.482-7.614-6.055-12.141-2.868
																c-2.485,1.75-4.216,4.976-3.451,10.802c2.042,15.535,17.216,10.281,17.185,9.832
																C312.352,358.925,311.678,347.858,310.777,341.438z"/>
														</g>
													</g>
												</g>
											</g>
										</g>
									</g>
								</g>
							</g>
						</g>
					</g>
				</g>
			</g>
			<g>
				<g>
					<g>
						<g>
							<g>
								<g>
									<g>
										<g>
											<g>
												<g>
													<g>
														<g>
															<g>
																<path style="fill:#664D49;" d="M306.853,353.942c-0.075-0.04-0.246,0.225-0.676,0.495
																	c-0.419,0.263-1.168,0.504-2.017,0.308c-1.72-0.387-3.445-2.811-3.888-5.601c-0.225-1.409-0.106-2.794,0.249-3.974
																	c0.325-1.199,0.955-2.09,1.762-2.345c0.797-0.298,1.447,0.12,1.695,0.532c0.265,0.407,0.207,0.73,0.293,0.746
																	c0.049,0.033,0.299-0.304,0.09-0.93c-0.105-0.3-0.335-0.643-0.739-0.893c-0.412-0.254-0.981-0.337-1.548-0.199
																	c-1.187,0.24-2.121,1.484-2.511,2.78c-0.455,1.31-0.623,2.871-0.369,4.453c0.511,3.117,2.498,5.836,4.829,6.19
																	c1.13,0.142,1.999-0.308,2.421-0.736C306.874,354.321,306.91,353.963,306.853,353.942z"/>
															</g>
														</g>
													</g>
												</g>
											</g>
										</g>
									</g>
								</g>
							</g>
						</g>
					</g>
				</g>
			</g>
		</g>
		<g>
			<g>
				<g>
					<path style="fill:#455A64;" d="M298.382,358.072c0.742-0.959,1.849-1.892,3.022-2.401l-0.247,0.007
						c0.221-0.083,0.449-0.13,0.677-0.178c0.866-0.288,1.75-0.323,2.537,0.085l-0.024,0.001c1.42,0.383,2.722,1.281,3.502,2.536
						c1.359,2.184,1.192,5.141-0.178,7.318c-1.191,1.892-3.408,3.26-5.618,2.929c-2.031-0.304-3.666-1.975-4.406-3.89
						C296.838,362.383,297.007,359.849,298.382,358.072z"/>
				</g>
			</g>
		</g>
		<g>
			<path style="fill:#455A64;" d="M305.601,360.628c0.006,0.001-0.004,0.071-0.03,0.21c-0.044,0.133-0.027,0.362-0.166,0.609
				c-0.177,0.538-0.751,1.214-1.69,1.753c-0.94,0.546-2.244,0.932-3.8,1.088c-0.777,0.086-1.622,0.097-2.516,0.021
				c-0.892-0.076-1.847-0.232-2.792-0.625l0.18-0.107c-0.181,2.149-1.413,4.546-3.714,5.967c-2.267,1.421-5.618,1.577-8.28-0.129
				l0.261-0.066c-0.404,0.731-1.124,1.288-1.945,1.515c-0.814,0.251-1.708,0.218-2.542-0.025c-0.836-0.244-1.623-0.766-2.154-1.501
				c-0.535-0.726-0.86-1.604-0.981-2.511c-0.244-1.82,0.284-3.74,1.317-5.329c1.015-1.613,2.413-2.967,3.818-4.308l0.054,0.359
				c-1.371-0.672-2.339-2.032-2.747-3.515c-0.419-1.488-0.388-3.118,0.106-4.635c0.503-1.511,1.396-2.875,2.443-4.092
				c1.05-1.222,2.252-2.313,3.462-3.397l0.002,0.353c-1.243-1.068-1.862-2.761-1.871-4.414c-0.019-1.663,0.477-3.349,1.422-4.763
				c1.818-2.704,4.628-4.338,7.217-5.871l-0.105,0.278c-1.093-3.355-0.344-7.115,1.755-9.726c2.107-2.619,5.41-4.026,8.556-3.891
				l-0.221,0.285c-0.821-2.753,0.008-5.656,1.551-7.747c1.54-2.119,3.903-3.554,6.352-3.723l-0.181,0.211
				c-0.208-2.858,1.205-5.429,3.04-7.063c1.847-1.666,4.227-2.477,6.389-2.282l-0.167,0.165c-0.063-1.522,0.399-2.904,0.972-4.096
				c0.588-1.192,1.323-2.224,2.157-3.037c1.622-1.69,3.581-2.473,5.165-2.695c0.2-0.029,0.394-0.056,0.583-0.083
				c0.19-0.01,0.375,0.002,0.553,0.002c0.356,0.017,0.692-0.014,0.996,0.041c0.604,0.123,1.13,0.155,1.521,0.31
				c0.379,0.13,0.676,0.232,0.898,0.309c0.201,0.071,0.301,0.111,0.298,0.118c-0.003,0.007-0.109-0.019-0.313-0.077
				c-0.223-0.066-0.522-0.154-0.905-0.266c-0.392-0.141-0.915-0.157-1.512-0.267c-0.301-0.049-0.631-0.011-0.981-0.021
				c-0.175,0.003-0.357-0.005-0.543,0.008c-0.185,0.03-0.375,0.06-0.57,0.092c-1.549,0.243-3.448,1.029-5.018,2.699
				c-0.807,0.802-1.518,1.82-2.081,2.988c-0.551,1.164-0.983,2.521-0.913,3.951l0.009,0.18l-0.176-0.014
				c-2.07-0.172-4.353,0.619-6.126,2.236c-1.763,1.586-3.097,4.066-2.887,6.768l0.015,0.197l-0.196,0.014
				c-2.318,0.169-4.571,1.542-6.042,3.581c-1.475,2.012-2.247,4.787-1.467,7.372l0.09,0.298l-0.311-0.013
				c-3.003-0.124-6.174,1.236-8.177,3.737c-1.998,2.487-2.712,6.099-1.667,9.29l0.059,0.181l-0.164,0.097
				c-2.589,1.531-5.33,3.145-7.06,5.727c-0.892,1.332-1.361,2.932-1.343,4.493c0.01,1.555,0.583,3.099,1.707,4.066l0.203,0.174
				l-0.201,0.179c-2.4,2.136-4.806,4.38-5.783,7.283c-0.467,1.423-0.499,2.972-0.108,4.365c0.382,1.392,1.27,2.63,2.51,3.242
				l0.284,0.14l-0.23,0.219c-1.408,1.336-2.78,2.664-3.761,4.215c-0.999,1.529-1.492,3.334-1.272,5.047
				c0.193,1.695,1.259,3.276,2.842,3.692c1.508,0.478,3.339,0.036,4.052-1.292l0.094-0.175l0.168,0.109
				c2.52,1.637,5.743,1.512,7.915,0.166c2.214-1.345,3.428-3.651,3.62-5.72l0.017-0.177l0.164,0.07
				c0.9,0.385,1.836,0.549,2.71,0.633c0.877,0.083,1.709,0.083,2.476,0.008c1.534-0.134,2.823-0.494,3.751-1.009
				c0.927-0.509,1.499-1.146,1.692-1.662C305.553,360.919,305.571,360.621,305.601,360.628z"/>
		</g>
		<g>
			<path style="fill:#455A64;" d="M244.94,348.275c0,0-0.273-0.273-0.656-0.899c-0.372-0.626-0.857-1.628-1.052-3.028
				c-0.195-1.378-0.088-3.21,0.919-4.989c0.978-1.752,2.846-3.443,5.389-4.01l-0.118,0.196c-0.677-2.351-0.493-5.224,0.846-7.803
				c0.653-1.292,1.598-2.501,2.817-3.469c1.214-0.995,2.72-1.569,4.119-2.322c0.701-0.376,1.383-0.806,1.955-1.363
				c0.575-0.554,1-1.249,1.284-2.025c0.584-1.546,0.677-3.331,1.435-5.005c1.514-3.296,5.22-5.714,9.157-5.408l-0.249,0.284
				c-0.771-3.525,0.086-7.554,2.513-10.555c2.528-3.124,6.51-4.806,10.297-4.627l-0.241,0.276c-0.797-4.538,1.448-9.151,5.03-11.326
				c3.605-2.194,8.096-2.027,11.289-0.183l-0.25,0.043c1.489-1.716,3.361-2.883,5.207-3.725c1.861-0.826,3.718-1.406,5.505-1.696
				c3.563-0.674,6.758-0.482,9.297-0.051c2.544,0.463,4.46,1.204,5.662,1.881c0.626,0.292,1.031,0.648,1.336,0.828
				c0.294,0.2,0.436,0.315,0.436,0.315c-0.023,0.036-0.616-0.403-1.828-1.036c-1.211-0.637-3.12-1.336-5.645-1.761
				c-2.519-0.393-5.685-0.551-9.199,0.143c-1.763,0.299-3.59,0.885-5.411,1.708c-1.808,0.838-3.629,1.991-5.058,3.655l-0.107,0.125
				l-0.143-0.082c-3.073-1.759-7.416-1.9-10.859,0.214c-3.419,2.083-5.572,6.538-4.8,10.866l0.052,0.29l-0.293-0.014
				c-3.636-0.17-7.483,1.459-9.906,4.458c-2.331,2.88-3.162,6.771-2.424,10.156l0.067,0.309l-0.317-0.026
				c-3.712-0.301-7.273,2.006-8.71,5.127c-0.723,1.567-0.824,3.34-1.438,4.971c-0.299,0.815-0.771,1.582-1.393,2.176
				c-0.619,0.597-1.336,1.042-2.055,1.425c-1.437,0.763-2.912,1.321-4.072,2.266c-1.174,0.923-2.094,2.083-2.732,3.329
				c-1.311,2.487-1.509,5.269-0.873,7.547l0.045,0.162l-0.163,0.035c-2.443,0.522-4.273,2.138-5.24,3.826
				c-0.996,1.709-1.129,3.49-0.964,4.845c0.166,1.375,0.616,2.372,0.96,3.006C244.715,347.965,244.96,348.26,244.94,348.275z"/>
		</g>
		<g>
			<path style="fill:#455A64;" d="M394.475,341.628c0.026,0.016-0.358-0.401-0.153-1.275c0.105-0.422,0.371-0.909,0.818-1.359
				c0.441-0.465,1.109-0.807,1.857-1.11c0.742-0.315,1.613-0.591,2.362-1.195c0.746-0.601,1.305-1.539,1.574-2.632
				c0.286-1.094,0.297-2.319,0.133-3.6c-0.149-1.284-0.451-2.632-0.557-4.092c-0.245-2.957,0.789-6.053,1.312-9.369
				c0.25-1.657,0.275-3.425-0.164-5.146c-0.434-1.703-1.467-3.362-3.149-4.182c-1.659-0.859-3.641-1.01-5.605-1.455
				c-0.983-0.226-1.987-0.538-2.891-1.097c-0.918-0.545-1.625-1.405-2.153-2.323c-1.062-1.869-1.447-4-2.089-6.022
				c-0.313-1.014-0.7-2.017-1.297-2.88c-0.585-0.873-1.455-1.512-2.447-1.849c-1.381-0.408-2.875-0.227-4.36-0.275
				c-0.744-0.023-1.509-0.113-2.227-0.389c-0.718-0.271-1.362-0.741-1.832-1.331c-0.959-1.179-1.378-2.594-1.924-3.867
				c-0.509-1.295-1.256-2.439-2.215-3.378c-1.901-1.887-4.53-2.89-7.032-2.754c-2.506,0.121-4.849,1.22-6.449,2.881l-0.194,0.201
				l-0.134-0.245c-2.238-4.103-6.193-6.55-9.85-7.324c-1.846-0.391-3.641-0.358-5.247-0.071c-1.609,0.28-3.034,0.818-4.2,1.505
				c-2.353,1.388-3.599,3.242-4.251,4.522c-0.346,0.643-0.539,1.169-0.667,1.524c-0.064,0.162-0.115,0.291-0.158,0.398
				c-0.037,0.089-0.059,0.133-0.064,0.132c-0.005-0.002,0.006-0.049,0.033-0.141c0.034-0.11,0.076-0.244,0.128-0.41
				c0.109-0.364,0.284-0.9,0.615-1.559c0.623-1.311,1.856-3.223,4.242-4.671c1.182-0.717,2.631-1.282,4.27-1.584
				c1.635-0.309,3.471-0.359,5.367,0.027c3.75,0.765,7.815,3.241,10.14,7.455l-0.327-0.044c1.667-1.745,4.101-2.898,6.723-3.035
				c2.624-0.151,5.383,0.894,7.374,2.864c1.002,0.972,1.803,2.202,2.323,3.525c0.554,1.296,0.979,2.676,1.858,3.747
				c0.854,1.112,2.275,1.533,3.711,1.546c1.437,0.053,2.964-0.147,4.483,0.295c1.098,0.366,2.069,1.089,2.698,2.032
				c0.643,0.932,1.04,1.978,1.358,3.009c0.647,2.057,1.036,4.164,2.042,5.933c0.501,0.871,1.147,1.66,1.994,2.164
				c0.836,0.519,1.788,0.822,2.748,1.045c1.916,0.444,3.937,0.592,5.706,1.509c0.872,0.456,1.65,1.103,2.193,1.9
				c0.555,0.788,0.924,1.672,1.158,2.566c0.452,1.798,0.413,3.618,0.149,5.31c-0.553,3.369-1.587,6.413-1.367,9.288
				c0.093,1.426,0.382,2.776,0.522,4.08c0.156,1.299,0.134,2.572-0.176,3.702c-0.291,1.131-0.891,2.116-1.689,2.742
				c-0.803,0.628-1.694,0.889-2.434,1.19c-0.75,0.29-1.393,0.604-1.827,1.04c-0.441,0.423-0.71,0.884-0.824,1.283
				C394.187,341.203,394.526,341.627,394.475,341.628z"/>
		</g>
		<g>
			<path style="fill:#455A64;" d="M423,315.254c-0.007,0.004-0.069-0.091-0.182-0.279c-0.123-0.211-0.286-0.49-0.493-0.844
				c-0.438-0.772-1.061-1.867-1.856-3.266c-0.813-1.413-1.738-3.187-3.016-5.108c-1.276-1.888-2.994-4.023-5.634-5.22
				c-1.312-0.592-2.804-0.938-4.316-1.482c-0.754-0.276-1.519-0.609-2.223-1.091c-0.707-0.473-1.321-1.138-1.74-1.92
				c-0.858-1.565-1.014-3.4-1.726-5.031c-0.361-0.806-0.889-1.552-1.658-2.022c-0.753-0.493-1.665-0.747-2.592-0.978
				c-0.928-0.235-1.905-0.43-2.837-0.856c-0.944-0.399-1.757-1.157-2.293-2.052c-1.074-1.828-1.242-3.965-1.775-5.956
				c-0.264-0.996-0.613-1.991-1.245-2.787c-0.618-0.812-1.573-1.307-2.595-1.449c-2.083-0.277-4.236,0.599-6.547,0.406
				c-1.155-0.108-2.272-0.614-3.118-1.371c-0.854-0.754-1.513-1.657-2.139-2.544c-0.625-0.889-1.219-1.781-1.909-2.566
				c-0.683-0.787-1.492-1.454-2.438-1.796c-1.92-0.72-3.997-0.104-5.89,0.48c-1.906,0.591-3.895,1.223-5.889,0.947
				c-1.976-0.25-3.714-1.129-5.327-1.972c-1.619-0.842-3.157-1.752-4.777-2.215c-3.272-0.906-6.553-0.513-9.281,0.378
				c-2.753,0.905-4.954,2.441-6.6,4.033c-1.657,1.609-2.678,3.339-3.458,4.756c-0.69,1.468-1.161,2.643-1.376,3.474
				c-0.124,0.39-0.222,0.697-0.296,0.93c-0.069,0.209-0.109,0.315-0.117,0.314c-0.008-0.002,0.016-0.112,0.069-0.325
				c0.063-0.236,0.146-0.549,0.251-0.945c0.186-0.843,0.63-2.035,1.302-3.529c0.761-1.443,1.772-3.209,3.437-4.862
				c1.654-1.635,3.881-3.219,6.68-4.162c2.776-0.927,6.114-1.356,9.499-0.438c1.695,0.478,3.242,1.392,4.861,2.223
				c1.609,0.835,3.31,1.678,5.186,1.908c1.878,0.257,3.784-0.345,5.701-0.946c0.966-0.295,1.953-0.604,2.999-0.752
				c1.039-0.15,2.156-0.117,3.188,0.27c1.04,0.376,1.915,1.103,2.626,1.921c0.721,0.818,1.322,1.724,1.944,2.605
				c0.622,0.88,1.265,1.753,2.063,2.457c0.796,0.706,1.788,1.153,2.852,1.257c2.153,0.197,4.304-0.685,6.568-0.401
				c1.121,0.152,2.211,0.719,2.895,1.623c0.7,0.887,1.058,1.943,1.329,2.964c0.535,2.042,0.715,4.146,1.714,5.84
				c0.5,0.829,1.211,1.502,2.09,1.879c0.867,0.401,1.82,0.598,2.757,0.837c0.934,0.237,1.893,0.501,2.718,1.043
				c0.845,0.521,1.433,1.36,1.808,2.213c0.737,1.727,0.885,3.543,1.69,5.012c0.765,1.503,2.281,2.326,3.743,2.855
				c1.478,0.544,2.98,0.902,4.328,1.521c2.723,1.261,4.45,3.463,5.716,5.379c1.269,1.953,2.168,3.739,2.956,5.166
				c0.762,1.418,1.358,2.528,1.778,3.309c0.189,0.363,0.339,0.65,0.452,0.866C422.959,315.148,423.007,315.25,423,315.254z"/>
		</g>
		<g>
			<path style="fill:#455A64;" d="M405.202,300.138c-0.002-0.008,0.092-0.032,0.281-0.07c0.189-0.009,0.49-0.029,0.844,0.123
				c0.702,0.282,1.538,1.217,1.755,2.652c0.097,0.723-0.025,1.512-0.163,2.357c-0.135,0.842-0.323,1.762-0.206,2.73
				c0.118,0.969,0.635,1.911,1.309,2.801c0.674,0.897,1.513,1.763,2.217,2.837c0.721,1.04,1.14,2.523,0.676,3.899
				c-0.401,1.365-1.285,2.547-1.659,3.932c-0.39,1.387,0.009,2.904,0.74,4.263c0.711,1.382,1.68,2.701,2.392,4.242
				c0.359,0.765,0.625,1.611,0.686,2.496c0.062,0.885-0.094,1.787-0.403,2.626c-0.633,1.684-1.728,3.127-2.642,4.666
				c-0.917,1.516-1.65,3.272-1.287,5.061c0.332,1.788,1.465,3.363,2.271,5.127c0.404,0.885,0.725,1.834,0.789,2.826
				c0.057,0.99-0.154,1.974-0.527,2.859c-0.758,1.779-1.982,3.21-3.043,4.659c-1.072,1.445-2.02,2.936-2.405,4.617
				c-0.441,1.659-0.604,3.388-1.264,4.976c-0.328,0.788-0.802,1.528-1.44,2.09c-0.635,0.572-1.399,0.922-2.129,1.225
				c-0.734,0.303-1.459,0.565-2.107,0.929c-0.639,0.377-1.218,0.832-1.713,1.359c-0.983,1.067-1.681,2.314-2.313,3.525
				c-0.632,1.214-1.214,2.406-1.886,3.484c-1.33,2.185-3.268,3.66-5.143,4.396c-1.876,0.763-3.651,0.953-5.061,0.86
				c-1.418-0.091-2.488-0.403-3.176-0.683c-0.688-0.285-1.021-0.491-1.021-0.491c0.022-0.099,1.392,0.848,4.205,0.989
				c1.389,0.064,3.126-0.152,4.949-0.921c1.828-0.748,3.679-2.186,4.96-4.328c0.651-1.064,1.219-2.249,1.846-3.475
				c0.628-1.222,1.328-2.503,2.35-3.626c0.516-0.556,1.125-1.042,1.802-1.445c0.686-0.389,1.426-0.66,2.147-0.961
				c0.718-0.301,1.432-0.638,2.005-1.159c0.579-0.515,1.012-1.193,1.32-1.938c0.623-1.502,0.785-3.217,1.229-4.922
				c0.393-1.745,1.394-3.329,2.47-4.778c1.07-1.462,2.269-2.882,2.981-4.563c0.351-0.836,0.541-1.741,0.49-2.65
				c-0.06-0.907-0.357-1.798-0.748-2.655c-0.775-1.714-1.939-3.307-2.304-5.238c-0.189-0.955-0.098-1.953,0.176-2.859
				c0.275-0.911,0.71-1.743,1.176-2.529c0.936-1.563,2.016-2.991,2.617-4.584c0.293-0.794,0.437-1.623,0.383-2.438
				c-0.053-0.815-0.295-1.608-0.639-2.347c-0.678-1.487-1.638-2.808-2.365-4.232c-0.744-1.392-1.184-3.05-0.748-4.557
				c0.419-1.482,1.31-2.653,1.689-3.934c0.432-1.276,0.074-2.594-0.608-3.614c-0.667-1.04-1.496-1.916-2.175-2.837
				c-0.678-0.915-1.218-1.914-1.331-2.951c-0.109-1.03,0.1-1.964,0.247-2.802c0.151-0.837,0.282-1.615,0.203-2.295
				c-0.178-1.374-0.958-2.295-1.61-2.587C405.61,299.987,405.197,300.184,405.202,300.138z"/>
		</g>
		<g>
			<path style="fill:#263238;" d="M245.294,347.736c0,0-0.428,0.057-1.246-0.03c-0.809-0.098-2.031-0.358-3.391-1.168
				c-1.338-0.794-2.861-2.196-3.628-4.355c-0.768-2.109-0.783-4.959,0.727-7.461c0.754-1.236,1.822-2.309,2.882-3.436
				c1.048-1.124,2.159-2.352,2.645-3.925c0.517-1.573,0.125-3.335-0.609-4.94c-0.722-1.629-1.756-3.192-2.466-5.003
				c-1.396-3.602-1.457-8.003,0.313-11.911c1.754-3.889,5.335-7.153,9.765-8.429l-0.114,0.376c-0.789-0.944-1.338-2.094-1.605-3.309
				c-0.253-1.218-0.267-2.492-0.043-3.73c0.232-1.235,0.654-2.45,1.311-3.547c0.656-1.096,1.487-2.084,2.443-2.94
				c2.879-2.57,6.476-3.961,9.957-4.912c3.512-0.939,7.062-1.327,10.459-1.233l-0.234,0.239c-0.18-4.206,2.156-8.199,5.555-10.062
				c1.679-0.959,3.566-1.431,5.403-1.463c1.86-0.058,3.59,0.547,5.219,0.971c0.821,0.207,1.639,0.372,2.447,0.376
				c0.807,0.019,1.595-0.15,2.331-0.421c1.479-0.552,2.741-1.478,3.979-2.316c1.23-0.853,2.489-1.625,3.809-2.098
				c1.312-0.484,2.636-0.747,3.904-0.821c2.542-0.16,4.831,0.407,6.612,1.284c1.792,0.875,3.109,1.999,4.041,3.012
				c0.935,1.02,1.495,1.936,1.84,2.564c0.344,0.631,0.465,0.986,0.465,0.986c-0.021,0.01-0.17-0.333-0.535-0.947
				c-0.365-0.611-0.942-1.505-1.883-2.497c-0.939-0.986-2.254-2.075-4.025-2.915c-1.759-0.843-4.008-1.376-6.496-1.199
				c-1.24,0.082-2.534,0.349-3.811,0.83c-1.286,0.471-2.501,1.225-3.726,2.085c-1.23,0.842-2.502,1.792-4.046,2.378
				c-0.768,0.287-1.607,0.472-2.463,0.456c-0.855-0.001-1.705-0.17-2.54-0.377c-1.667-0.428-3.332-1.002-5.117-0.939
				c-1.768,0.037-3.586,0.497-5.197,1.425c-3.255,1.791-5.491,5.642-5.311,9.667l0.011,0.245l-0.246-0.006
				c-3.354-0.087-6.859,0.301-10.324,1.231c-3.441,0.941-6.975,2.321-9.759,4.81c-0.925,0.827-1.727,1.784-2.353,2.829
				c-0.627,1.045-1.031,2.209-1.254,3.388c-0.215,1.183-0.2,2.395,0.037,3.547c0.252,1.148,0.767,2.223,1.501,3.107l0.231,0.277
				l-0.345,0.099c-4.29,1.229-7.781,4.397-9.488,8.163c-1.726,3.785-1.682,8.073-0.337,11.58c0.679,1.758,1.705,3.325,2.438,4.993
				c0.744,1.639,1.164,3.523,0.602,5.203c-0.53,1.675-1.691,2.925-2.747,4.049c-1.073,1.126-2.129,2.177-2.865,3.366
				c-1.472,2.395-1.487,5.165-0.762,7.222c0.722,2.103,2.187,3.491,3.488,4.293c1.322,0.818,2.519,1.102,3.316,1.225
				C244.865,347.735,245.295,347.71,245.294,347.736z"/>
		</g>
		<g>
			<path style="fill:#263238;" d="M409.907,289.007c-0.008,0.001-0.031-0.099-0.066-0.294c-0.038-0.221-0.087-0.508-0.149-0.87
				c-0.133-0.796-0.321-1.917-0.561-3.346c-0.26-1.449-0.598-3.22-1.145-5.235c-0.55-2.009-1.308-4.28-2.561-6.58
				c-1.25-2.289-3.024-4.623-5.477-6.468c-1.23-0.909-2.639-1.666-4.185-2.172c-1.553-0.494-3.235-0.715-4.955-1.04
				c-1.718-0.303-3.501-0.829-5.083-1.818c-1.579-0.982-2.959-2.287-4.269-3.661c-1.318-1.371-2.583-2.827-4.029-4.122
				c-1.431-1.304-3.087-2.392-4.94-3.112c-3.706-1.48-7.696-1.687-11.451-1.566c-3.775,0.162-7.408,0.582-10.818,1.243
				c-6.834,1.287-12.728,3.617-17.278,6.228c-4.563,2.62-7.706,5.569-9.668,7.741c-0.481,0.555-0.928,1.033-1.283,1.473
				c-0.336,0.445-0.624,0.826-0.864,1.143c-0.225,0.29-0.403,0.521-0.54,0.698c-0.124,0.156-0.191,0.234-0.198,0.229
				c-0.007-0.005,0.046-0.091,0.157-0.256c0.128-0.185,0.293-0.424,0.502-0.727c0.23-0.326,0.507-0.717,0.831-1.174
				c0.345-0.452,0.783-0.941,1.256-1.509c1.93-2.221,5.061-5.233,9.638-7.91c4.562-2.668,10.49-5.049,17.363-6.368
				c3.43-0.677,7.083-1.109,10.885-1.279c3.786-0.127,7.837,0.071,11.645,1.59c1.899,0.737,3.621,1.87,5.079,3.201
				c1.473,1.322,2.742,2.789,4.049,4.151c1.299,1.368,2.649,2.645,4.172,3.597c1.523,0.956,3.222,1.466,4.927,1.774
				c1.699,0.328,3.402,0.556,5,1.072c1.592,0.528,3.037,1.315,4.292,2.254c2.503,1.904,4.287,4.292,5.537,6.624
				c1.252,2.346,1.993,4.643,2.522,6.672c0.526,2.034,0.838,3.816,1.071,5.272c0.229,1.458,0.377,2.593,0.473,3.363
				c0.042,0.365,0.076,0.654,0.102,0.877C409.909,288.904,409.915,289.005,409.907,289.007z"/>
		</g>
	</g>
	<g>
		<g>
			<path style="fill:#455A64;" d="M415.367,478.063l-1.975-50.453c0,0-3.743-10.472-4.991-10.472l-39.243-13.402
				c0,0-13.412,14.777-29.228,13.112c-15.816-1.665-28.671-14.599-28.671-14.599l-43.678,10.433v0
				c-3.165,0.634-8.937,2.634-14.456,10.519c-6.158,8.798-38.577,54.601-38.577,54.601"/>
		</g>
	</g>
	<g>
		<g>
			<path style="fill:#455A64;" d="M407.567,416.854c0,0,15.991,5.094,22.165,14.355c6.174,9.26,25.256,46.998,25.256,46.998h-41.813
				l-14.243-47.84L407.567,416.854z"/>
			<g>
				<path style="fill:#263238;" d="M414.498,477.901c-0.035-0.003-0.029-0.602-0.018-1.673c-0.061-1.072-0.157-2.625-0.541-4.509
					c-0.69-3.78-2.319-8.864-4.545-14.299c-2.207-5.448-4.531-10.245-6.213-13.712c-0.826-1.678-1.508-3.061-2.018-4.097
					c-0.212-0.445-0.389-0.815-0.535-1.121c-0.118-0.259-0.173-0.399-0.158-0.406c0.014-0.008,0.098,0.117,0.243,0.362
					c0.168,0.295,0.371,0.652,0.615,1.08c0.53,0.94,1.267,2.317,2.154,4.031c1.761,3.433,4.138,8.216,6.353,13.684
					c2.234,5.453,3.824,10.588,4.435,14.419c0.345,1.908,0.391,3.486,0.395,4.567c-0.027,0.542-0.072,0.961-0.099,1.245
					C414.538,477.755,414.515,477.903,414.498,477.901z"/>
			</g>
		</g>
	</g>
	<g>
		<g>
			<path style="fill:#876760;" d="M213.526,427.238c-0.893-0.718,3.017-15.004,3.017-15.004s-10.355-16.039-10.627-21.213
				c-0.272-5.174,4.087-15.78,4.087-15.78l29.701-7.243c0,0,9.541,16.815,11.447,22.765c1.905,5.95-3.272,26.128-3.272,26.128
				l-5.031,10.348C242.847,427.238,227.675,438.621,213.526,427.238z"/>
		</g>
		<g>
			<g>
				<path style="fill:#876760;" d="M205.973,394.115c0,0-1.289-2.12-3.128-6.262c-1.88-4.234-4.19-8.386,0-10.753
					c2.465-1.393,4.475-0.67,4.475-0.67s-0.643-3.564,1.6-4.901c2.243-1.338,4.404-0.363,4.404-0.363s-0.708-5.026,2.521-7.159
					c4.05-2.674,8.226-0.223,8.226-0.223s-2.556-22.004-2.778-23.17c-0.814-4.278,0.854-8.064,5.338-7.008
					c1.643,0.387,2.555,2.031,4.483,9.197c1.927,7.165,5.023,19.395,5.023,19.395s5.216,8.605,7.68,13.273
					c2.464,4.667,7.335,15.294,7.74,18.109c1.049,7.28-3.441,16.917-3.441,16.917l-31.572,1.739
					C216.543,412.234,207.175,396.203,205.973,394.115z"/>
			</g>
			<g>
				<g>
					<path style="fill:#664D49;" d="M207.942,377.378c0.077-0.047,1.005,1.194,2.444,3.238c0.746,1.078,1.585,2.289,2.497,3.607
						c0.463,0.681,0.972,1.405,1.357,2.253c0.384,0.833,0.622,1.855,0.372,2.858c-0.211,0.985-0.953,1.942-1.994,2.22
						c-1.031,0.305-2.034,0.013-2.828-0.331c-0.81-0.354-1.495-0.818-2.109-1.238c-0.621-0.423-1.189-0.83-1.701-1.21
						c-1.023-0.76-1.821-1.41-2.355-1.877c-0.535-0.467-0.809-0.747-0.78-0.779c0.064-0.072,1.314,0.879,3.415,2.299
						c1.063,0.674,2.296,1.616,3.781,2.276c0.741,0.309,1.603,0.518,2.38,0.273c0.787-0.218,1.356-0.934,1.546-1.771
						c0.21-0.84,0.022-1.701-0.324-2.481c-0.345-0.782-0.824-1.492-1.274-2.182c-0.868-1.344-1.667-2.58-2.377-3.679
						C208.653,378.75,207.865,377.425,207.942,377.378z"/>
				</g>
			</g>
			<g>
				<g>
					<path style="fill:#664D49;" d="M233.836,379.991c-0.171,0.008-0.328-2.147,0.331-4.71c0.645-2.567,1.82-4.416,1.969-4.335
						c0.176,0.081-0.702,1.998-1.324,4.483C234.172,377.909,234.031,379.995,233.836,379.991z"/>
				</g>
			</g>
			<g>
				<g>
					<path style="fill:#876760;" d="M246.351,386.424c-2.821-2.729-6.625-4.423-10.561-5.234c-3.936-0.811-8.016-0.785-12.027-0.439
						c-3.212,0.278-6.879,1.066-8.342,3.794c-1.506,2.808,0.306,6.428,3.156,8.044c2.849,1.616,6.372,1.679,9.678,1.394
						c3.306-0.285,6.639-0.871,9.919-0.385"/>
				</g>
				<g>
					<g>
						<path style="fill:#664D49;" d="M238.173,393.599c-0.008,0.054-0.89-0.08-2.492-0.062c-1.604,0.001-3.902,0.279-6.766,0.61
							c-1.434,0.151-3.024,0.276-4.74,0.19c-1.705-0.093-3.574-0.395-5.319-1.268c-1.754-0.858-3.256-2.411-3.951-4.363
							c-0.359-0.969-0.452-2.06-0.224-3.12c0.262-1.052,0.867-2.048,1.742-2.772c1.762-1.478,4.02-1.951,6.069-2.237
							c2.083-0.239,4.079-0.337,5.999-0.344c3.832-0.014,7.295,0.525,10.037,1.443c2.751,0.906,4.768,2.12,6.024,3.086
							c0.633,0.481,1.086,0.896,1.382,1.187c0.29,0.297,0.433,0.459,0.417,0.474c-0.044,0.043-0.66-0.575-1.955-1.466
							c-1.286-0.893-3.3-2.024-6.017-2.859c-2.708-0.846-6.106-1.329-9.886-1.285c-1.885,0.022-3.885,0.133-5.913,0.375
							c-1.994,0.28-4.143,0.764-5.713,2.093c-0.784,0.647-1.309,1.524-1.543,2.441c-0.199,0.929-0.128,1.904,0.197,2.789
							c0.627,1.787,2.006,3.24,3.621,4.045c1.629,0.834,3.411,1.147,5.067,1.259c1.665,0.107,3.232,0.01,4.659-0.112
							c2.854-0.273,5.195-0.488,6.816-0.412c0.81,0.026,1.435,0.103,1.856,0.163C237.96,393.527,238.177,393.578,238.173,393.599z"
							/>
					</g>
				</g>
			</g>
			<g>
				<g>
					<path style="fill:#876760;" d="M208.172,377.721c3.322,4.789,6.254,10.053,9.054,15.134c0.814,1.478,1.676,3.041,3.172,3.916
						c1.198,0.701,4.169-0.571,5.5-1.004l-9.121-19.704"/>
				</g>
				<g>
					<g>
						<path style="fill:#664D49;" d="M216.777,376.064c0.039-0.016,0.324,0.504,0.81,1.468c0.522,1.067,1.2,2.451,2.02,4.126
							c1.69,3.512,4.007,8.423,6.592,13.984l0.143,0.307l-0.337,0.114c-0.985,0.333-2.043,0.755-3.183,1.027
							c-0.451,0.104-0.91,0.188-1.395,0.198c-0.241,0.004-0.491-0.004-0.748-0.075c-0.259-0.053-0.515-0.207-0.687-0.321
							c-0.769-0.506-1.358-1.179-1.837-1.865c-0.938-1.397-1.599-2.8-2.341-4.101c-1.433-2.62-2.746-4.967-3.885-6.918
							c-1.135-1.953-2.095-3.512-2.761-4.588c-0.666-1.077-1.037-1.671-0.995-1.697c0.035-0.022,0.479,0.528,1.214,1.567
							c0.735,1.039,1.759,2.567,2.95,4.498c1.194,1.929,2.554,4.26,4.018,6.868c0.752,1.288,1.448,2.719,2.341,4.03
							c0.456,0.647,0.997,1.252,1.672,1.693c0.573,0.444,1.459,0.281,2.295,0.103c1.079-0.256,2.105-0.662,3.13-1.007l-0.194,0.421
							c-2.566-5.569-4.81-10.51-6.393-14.067c-0.746-1.706-1.362-3.117-1.836-4.203C216.949,376.631,216.738,376.08,216.777,376.064
							z"/>
					</g>
				</g>
			</g>
			<g>
				<g>
					<path style="fill:#876760;" d="M214.318,370.21c2.932,6.98,5.864,13.961,8.796,20.941c0.622,1.482,1.264,2.994,2.365,4.2
						c1.101,1.205,2.766,2.068,4.428,1.832c2.291-0.324,3.79-2.632,3.906-4.829c0.116-2.197-0.8-4.308-1.646-6.355
						c-2.631-6.365-4.742-12.923-6.307-19.598"/>
				</g>
				<g>
					<g>
						<path style="fill:#664D49;" d="M225.859,366.401c0.022-0.005,0.098,0.215,0.221,0.638c0.138,0.491,0.311,1.103,0.522,1.851
							c0.455,1.606,1.117,3.929,2.047,6.766c0.928,2.837,2.126,6.189,3.641,9.842c0.734,1.82,1.685,3.757,1.842,5.991
							c0.085,1.102-0.119,2.286-0.665,3.326c-0.535,1.035-1.418,2.002-2.644,2.458c-1.227,0.466-2.616,0.267-3.694-0.284
							c-1.099-0.539-1.97-1.395-2.596-2.322c-1.248-1.886-1.853-3.882-2.661-5.69c-1.502-3.645-2.86-6.939-4.013-9.737
							c-1.095-2.717-1.992-4.946-2.652-6.584c-0.279-0.728-0.507-1.324-0.69-1.802c-0.151-0.415-0.22-0.636-0.199-0.644
							c0.021-0.008,0.132,0.198,0.323,0.597c0.214,0.466,0.48,1.048,0.805,1.758c0.708,1.62,1.672,3.823,2.848,6.51
							c1.191,2.783,2.593,6.06,4.145,9.687c0.818,1.801,1.463,3.82,2.637,5.566c0.592,0.867,1.377,1.625,2.357,2.105
							c0.964,0.487,2.13,0.641,3.15,0.254c1.024-0.378,1.81-1.216,2.293-2.148c0.493-0.945,0.681-1.982,0.608-3.014
							c-0.132-2.075-1.035-3.979-1.763-5.816c-1.49-3.681-2.647-7.061-3.521-9.924c-0.876-2.863-1.47-5.209-1.848-6.836
							c-0.185-0.815-0.322-1.448-0.401-1.881C225.869,366.635,225.837,366.406,225.859,366.401z"/>
					</g>
				</g>
			</g>
		</g>
		<path style="fill:#876760;" d="M215.025,419.307c0,0-20.142,56.36-20.937,59.128h39.599l14.528-62.906L215.025,419.307z"/>
		<g>
			<g>
				<path style="fill:#664D49;" d="M234.638,410.546c-0.008,0.071-0.751,0.08-1.895-0.236c-1.14-0.31-2.656-1.015-4.006-2.187
					c-1.347-1.177-2.218-2.549-2.642-3.601c-0.431-1.055-0.486-1.758-0.412-1.772c0.192-0.075,0.891,2.682,3.502,4.909
					C231.746,409.936,234.701,410.359,234.638,410.546z"/>
			</g>
		</g>
	</g>
	<g>
		<path style="fill:#263238;" d="M279.561,453.014c0.127,0.068-2.742,5.694-6.407,12.565c-3.666,6.874-6.74,12.389-6.867,12.321
			c-0.127-0.068,2.741-5.693,6.407-12.566C276.36,458.463,279.435,452.947,279.561,453.014z"/>
	</g>
</g>
<g id="Floor">
	<g>
		<path style="fill:#263238;" d="M465.072,478.063c0,0.144-96.299,0.26-215.062,0.26c-118.804,0-215.082-0.116-215.082-0.26
			c0-0.144,96.278-0.26,215.082-0.26C368.773,477.803,465.072,477.919,465.072,478.063z"/>
	</g>
</g>
<g id="Light_Bulb">
	<g>
		<g>
			<g>
				<g>
					<g>
						<g>
							<path style="fill:#FF725E;" d="M256.958,163.107c5.953-38.18-20.171-73.958-58.352-79.912
								c-38.18-5.954-73.958,20.171-79.912,58.352c-4.31,27.643,8.201,54.017,29.922,68.734c-1.278,8.192-2.72,17.44-2.72,17.44
								l60.591,9.448c0,0,1.892-9.731,3.39-18.448C233.932,210.711,252.783,189.883,256.958,163.107z"/>
						</g>
					</g>
				</g>
			</g>
		</g>
		<g>
			<path style="fill:#FFFFFF;" d="M197.418,235.739c0,0-0.002-0.296,0.02-0.873c0.025-0.59,0.061-1.444,0.109-2.56
				c0.107-2.25,0.291-5.567,0.589-9.836c0.617-8.533,1.699-20.88,3.91-36.024c0.547-3.786,1.17-7.746,1.872-11.863
				c0.363-2.057,0.732-4.155,1.109-6.292c0.395-2.121,0.751-4.363,1.83-6.408c0.535-1.016,1.297-1.945,2.267-2.625
				c0.959-0.67,2.201-1.098,3.429-0.847c1.239,0.242,2.218,1.181,2.791,2.249c0.566,1.086,0.835,2.331,0.737,3.568
				c-0.188,2.519-1.884,4.702-3.989,6.034c-2.127,1.356-4.723,1.958-7.287,1.81c-2.568-0.149-5.124-1.071-7.225-2.669
				c-2.118-1.589-3.682-3.881-4.608-6.395c-0.928-2.52-1.249-5.294-0.878-8.012c0.19-1.353,0.517-2.718,1.164-3.965
				c0.627-1.229,1.57-2.436,2.973-2.957c0.688-0.255,1.467-0.286,2.179-0.106c0.711,0.191,1.368,0.552,1.911,1.033
				c1.111,0.944,1.802,2.311,2.103,3.707c0.316,1.405,0.321,2.85,0.215,4.267c-0.114,1.419-0.312,2.826-0.569,4.234
				c-0.523,2.807-1.355,5.606-2.712,8.19c-1.346,2.567-3.264,4.961-5.846,6.473c-1.275,0.761-2.669,1.331-4.129,1.607
				c-1.458,0.267-2.98,0.24-4.412-0.159c-1.433-0.406-2.721-1.217-3.78-2.228c-1.063-1.02-1.864-2.268-2.471-3.575
				c-1.21-2.63-1.751-5.465-2.055-8.255c-0.155-1.398-0.244-2.796-0.297-4.187c-0.053-1.386-0.114-2.786,0.074-4.183
				c0.18-1.381,0.659-2.803,1.648-3.854c0.483-0.523,1.074-0.965,1.765-1.21c0.689-0.251,1.477-0.236,2.156,0.044
				c0.689,0.269,1.239,0.788,1.632,1.369c0.4,0.582,0.678,1.224,0.887,1.876c0.423,1.306,0.547,2.678,0.574,4.005
				c0.124,5.308-1.166,10.689-4.306,14.786c-1.572,2.031-3.639,3.635-5.944,4.614c-2.297,0.979-4.894,1.292-7.271,0.645
				c-2.4-0.616-4.37-2.294-5.63-4.281c-1.284-1.987-1.945-4.341-1.795-6.637c0.064-1.147,0.328-2.271,0.807-3.306
				c0.497-1.01,1.215-1.972,2.279-2.471c0.53-0.241,1.145-0.306,1.711-0.173c0.572,0.135,1.074,0.485,1.43,0.921
				c0.719,0.886,0.989,1.98,1.147,3.02c0.33,2.121-0.069,4.18-0.234,6.159c-0.207,1.991-0.41,3.939-0.607,5.841
				c-1.606,15.215-3.131,27.503-4.338,35.974c-0.599,4.236-1.127,7.516-1.496,9.738c-0.194,1.1-0.343,1.942-0.446,2.523
				c-0.104,0.568-0.17,0.856-0.17,0.856s0.032-0.295,0.119-0.865c0.091-0.583,0.223-1.428,0.396-2.531
				c0.336-2.226,0.832-5.51,1.401-9.749c1.147-8.476,2.617-20.768,4.177-35.984c0.192-1.902,0.389-3.85,0.591-5.841
				c0.162-1.995,0.546-4.029,0.22-6.065c-0.15-1.002-0.427-2.044-1.066-2.821c-0.608-0.794-1.751-1.078-2.67-0.633
				c-0.924,0.431-1.61,1.324-2.073,2.279c-0.448,0.971-0.704,2.058-0.761,3.153c-0.141,2.198,0.499,4.468,1.739,6.377
				c1.218,1.914,3.104,3.507,5.382,4.087c2.266,0.614,4.758,0.315,6.978-0.635c2.227-0.949,4.233-2.508,5.753-4.479
				c3.05-3.987,4.32-9.266,4.192-14.489c-0.028-1.315-0.152-2.622-0.555-3.869c-0.394-1.21-1.063-2.477-2.238-2.939
				c-1.171-0.519-2.526,0.085-3.376,1.045c-0.9,0.956-1.344,2.257-1.519,3.587c-0.18,1.335-0.122,2.712-0.068,4.096
				c0.053,1.383,0.142,2.769,0.296,4.153c0.301,2.76,0.839,5.548,2.013,8.095c0.587,1.266,1.358,2.46,2.367,3.427
				c1.007,0.959,2.222,1.724,3.567,2.104c2.716,0.765,5.709,0.084,8.142-1.396c2.486-1.454,4.34-3.763,5.659-6.275
				c1.327-2.524,2.148-5.276,2.664-8.047c0.459-2.766,0.935-5.616,0.361-8.298c-0.288-1.329-0.924-2.573-1.941-3.441
				c-0.982-0.882-2.379-1.303-3.596-0.838c-1.22,0.447-2.108,1.545-2.703,2.715c-0.615,1.181-0.932,2.493-1.118,3.808
				c-0.362,2.634-0.052,5.332,0.846,7.778c0.897,2.442,2.406,4.654,4.443,6.185c2.023,1.542,4.488,2.435,6.964,2.582
				c2.472,0.146,4.977-0.433,7.015-1.729c2.02-1.27,3.618-3.353,3.79-5.682c0.095-1.152-0.159-2.324-0.68-3.328
				c-0.532-0.99-1.41-1.821-2.49-2.032c-1.077-0.225-2.201,0.148-3.1,0.773c-0.907,0.634-1.628,1.504-2.141,2.473
				c-1.04,1.955-1.403,4.16-1.801,6.283c-0.382,2.135-0.756,4.23-1.123,6.285c-0.711,4.112-1.345,8.067-1.903,11.85
				c-2.255,15.127-3.391,27.462-4.067,35.987c-0.328,4.265-0.544,7.579-0.683,9.827c-0.069,1.115-0.122,1.968-0.159,2.557
				C197.451,235.445,197.418,235.739,197.418,235.739z"/>
		</g>
		<g id="_x32_gGvdE.tif_2_">
			<path style="fill:#263238;" d="M153.313,283.062c0,0,2.475,2.216,3.785,4.578c0.681,1.227,1.921,2.042,3.307,2.257l13.535,2.1
				c1.517,0.235,3.06-0.284,4.102-1.412c1.22-1.322,3.269-2.789,5.185-2.882L153.313,283.062z"/>
		</g>
		<path style="fill:#E0E0E0;" d="M144.507,243.098c-0.042,0.272-0.183,21.901-0.235,30.172c-0.021,3.395,1.569,6.665,4.408,8.528
			c1.036,0.68,2.27,1.218,3.72,1.443c5.801,0.9,29.606,4.593,29.606,4.593s7.737,1.2,10.443-4.665
			c2.848-6.174,10.285-31.037,10.285-31.037L144.507,243.098z"/>
		<g>
			<path style="fill:#E0E0E0;" d="M194.774,280.627l-51.603-7.819c-0.811-0.123-1.368-0.88-1.245-1.69l0.024-0.161
				c0.123-0.811,0.88-1.368,1.69-1.245l51.603,7.82c0.811,0.123,1.368,0.88,1.245,1.69l-0.024,0.161
				C196.341,280.193,195.584,280.75,194.774,280.627z"/>
			<g>
				<path style="fill:#263238;" d="M194.774,280.627c-0.016-0.045,0.447,0.122,1.067-0.31c0.296-0.219,0.558-0.624,0.58-1.173
					c0.061-0.516-0.237-1.184-0.883-1.43c-2.795-0.47-6.972-1.02-12.062-1.785c-10.235-1.532-24.316-3.639-39.87-5.967
					c-0.407-0.064-0.832,0.09-1.104,0.395c-0.133,0.152-0.234,0.334-0.28,0.532c-0.044,0.211-0.078,0.441-0.047,0.629
					c0.056,0.4,0.323,0.761,0.686,0.933c0.333,0.151,0.886,0.17,1.34,0.258c1.895,0.288,3.763,0.573,5.598,0.852
					c3.669,0.561,7.208,1.102,10.581,1.618c6.735,1.041,12.802,1.979,17.911,2.769c5.07,0.802,9.184,1.453,12.069,1.91
					c1.396,0.232,2.493,0.414,3.277,0.545c0.351,0.064,0.631,0.115,0.85,0.154C194.678,280.595,194.775,280.619,194.774,280.627
					c-0.001,0.009-0.101,0.002-0.295-0.018c-0.221-0.027-0.504-0.061-0.858-0.105c-0.788-0.108-1.889-0.259-3.292-0.451
					c-2.891-0.419-7.013-1.016-12.093-1.751c-5.114-0.759-11.187-1.661-17.928-2.662c-3.374-0.507-6.915-1.038-10.585-1.589
					c-1.836-0.277-3.703-0.559-5.599-0.844l-0.712-0.108c-0.22-0.033-0.512-0.066-0.77-0.193c-0.513-0.243-0.888-0.749-0.968-1.316
					c-0.04-0.296,0.001-0.556,0.056-0.82c0.065-0.278,0.206-0.537,0.395-0.751c0.38-0.43,0.985-0.648,1.556-0.557
					c15.546,2.385,29.619,4.544,39.848,6.113c5.103,0.816,9.209,1.402,12.082,1.956c0.732,0.298,1.044,1.06,0.959,1.629
					c-0.036,0.573-0.344,1.028-0.669,1.24C195.215,280.831,194.751,280.613,194.774,280.627z"/>
			</g>
		</g>
		<g>
			<path style="fill:#E0E0E0;" d="M196.9,274.135l-53.79-8.151c-0.811-0.123-1.368-0.88-1.245-1.69l0.024-0.161
				c0.123-0.811,0.88-1.368,1.69-1.245l53.79,8.151c0.811,0.123,1.368,0.88,1.245,1.69l-0.024,0.161
				C198.467,273.7,197.71,274.258,196.9,274.135z"/>
			<g>
				<path style="fill:#263238;" d="M196.9,274.135c-0.018-0.047,0.469,0.132,1.101-0.337c0.307-0.235,0.545-0.672,0.553-1.241
					c0.029-0.54-0.348-1.211-1.044-1.388c-2.998-0.437-7.276-1.061-12.549-1.83c-10.629-1.591-25.258-3.782-41.416-6.201
					c-0.421-0.065-0.867,0.101-1.134,0.432c-0.137,0.161-0.225,0.358-0.264,0.565c-0.05,0.254-0.063,0.439-0.015,0.651
					c0.088,0.411,0.403,0.762,0.799,0.894c0.396,0.104,0.962,0.158,1.432,0.239c1.969,0.3,3.909,0.595,5.815,0.885
					c3.811,0.583,7.488,1.145,10.991,1.68c6.996,1.081,13.3,2.055,18.607,2.874c5.268,0.832,9.543,1.508,12.538,1.981
					c1.452,0.241,2.593,0.429,3.405,0.564c0.366,0.066,0.657,0.119,0.883,0.159C196.8,274.102,196.901,274.126,196.9,274.135
					c-0.001,0.009-0.105,0.002-0.306-0.02c-0.228-0.028-0.522-0.064-0.891-0.11c-0.815-0.112-1.961-0.27-3.419-0.47
					c-3.001-0.435-7.283-1.056-12.562-1.822c-5.311-0.789-11.62-1.727-18.623-2.767c-3.505-0.526-7.183-1.079-10.996-1.651
					c-1.907-0.288-3.847-0.58-5.816-0.877c-0.51-0.09-0.948-0.113-1.521-0.26c-0.559-0.187-1.002-0.679-1.128-1.26
					c-0.071-0.282-0.04-0.612,0.01-0.853c0.053-0.291,0.18-0.571,0.372-0.798c0.375-0.464,1.007-0.702,1.599-0.608
					c16.15,2.477,30.771,4.719,41.394,6.348c5.299,0.831,9.57,1.49,12.547,1.994c0.793,0.221,1.192,0.988,1.143,1.584
					c-0.021,0.596-0.304,1.086-0.641,1.316C197.364,274.35,196.874,274.118,196.9,274.135z"/>
			</g>
		</g>
		<g>
			<path style="fill:#E0E0E0;" d="M198.63,267.583l-55.183-8.362c-0.811-0.123-1.368-0.88-1.245-1.69l0.024-0.161
				c0.123-0.811,0.88-1.368,1.69-1.245l55.183,8.362c0.811,0.123,1.368,0.88,1.245,1.69l-0.024,0.161
				C200.197,267.148,199.44,267.706,198.63,267.583z"/>
			<g>
				<path style="fill:#263238;" d="M198.63,267.583c-0.02-0.048,0.484,0.139,1.123-0.354c0.312-0.245,0.539-0.703,0.532-1.283
					c0.008-0.553-0.418-1.224-1.145-1.35c-3.07-0.447-7.453-1.084-12.857-1.87c-10.881-1.63-25.858-3.873-42.402-6.35
					c-0.431-0.066-0.888,0.11-1.153,0.455c-0.135,0.169-0.219,0.372-0.253,0.588c-0.045,0.263-0.051,0.446,0.008,0.664
					c0.11,0.417,0.458,0.755,0.87,0.862c0.451,0.084,0.998,0.156,1.489,0.234c2.015,0.307,4.001,0.609,5.953,0.906
					c3.902,0.596,7.666,1.172,11.253,1.72c7.163,1.106,13.617,2.103,19.05,2.941c5.395,0.852,9.772,1.543,12.836,2.026
					c1.488,0.246,2.656,0.439,3.486,0.576c0.376,0.067,0.674,0.121,0.905,0.162C198.527,267.55,198.631,267.574,198.63,267.583
					c-0.001,0.009-0.107,0.001-0.313-0.021c-0.233-0.029-0.533-0.066-0.912-0.113c-0.834-0.115-2.006-0.276-3.5-0.482
					c-3.07-0.446-7.455-1.083-12.86-1.867c-5.437-0.808-11.896-1.768-19.066-2.834c-3.588-0.539-7.354-1.105-11.257-1.691
					c-1.952-0.294-3.938-0.594-5.954-0.898c-0.515-0.083-0.985-0.138-1.542-0.244c-0.584-0.152-1.072-0.627-1.228-1.215
					c-0.089-0.281-0.068-0.628-0.022-0.874c0.046-0.295,0.167-0.589,0.357-0.826c0.373-0.485,1.02-0.736,1.626-0.641
					c16.535,2.535,31.505,4.83,42.38,6.497c5.396,0.853,9.775,1.546,12.84,2.03c0.828,0.162,1.285,0.932,1.258,1.543
					c-0.005,0.61-0.275,1.123-0.618,1.363C199.109,267.805,198.602,267.564,198.63,267.583z"/>
			</g>
		</g>
		<g>
			<path style="fill:#E0E0E0;" d="M200.781,261.094l-57.421-8.701c-0.811-0.123-1.368-0.88-1.245-1.69l0.024-0.161
				c0.123-0.811,0.88-1.368,1.69-1.245l57.421,8.701c0.811,0.123,1.368,0.88,1.245,1.69l-0.024,0.161
				C202.349,260.659,201.592,261.217,200.781,261.094z"/>
			<g>
				<path style="fill:#263238;" d="M200.781,261.094c-0.023-0.051,0.507,0.149,1.157-0.382c0.317-0.259,0.526-0.759,0.494-1.352
					c-0.034-0.576-0.531-1.23-1.314-1.283c-3.183-0.463-7.732-1.125-13.341-1.94c-11.285-1.691-26.822-4.019-43.984-6.59
					c-0.449-0.071-0.92,0.127-1.183,0.493c-0.253,0.35-0.328,0.905-0.187,1.305c0.152,0.423,0.542,0.737,0.986,0.8
					c0.526,0.08,1.051,0.16,1.574,0.239c2.091,0.318,4.151,0.632,6.176,0.94c4.048,0.619,7.952,1.215,11.673,1.784
					c7.432,1.147,14.126,2.18,19.761,3.049c5.598,0.883,10.139,1.598,13.316,2.099c1.545,0.255,2.758,0.454,3.616,0.596
					c0.391,0.07,0.701,0.125,0.939,0.168C200.675,261.061,200.783,261.086,200.781,261.094c-0.001,0.009-0.111,0.001-0.325-0.023
					c-0.24-0.03-0.552-0.069-0.946-0.118c-0.862-0.119-2.079-0.287-3.631-0.502c-3.182-0.463-7.731-1.124-13.34-1.94
					c-5.64-0.839-12.34-1.836-19.777-2.942c-3.722-0.559-7.628-1.146-11.678-1.755c-2.025-0.306-4.085-0.617-6.176-0.932
					c-0.523-0.079-1.048-0.158-1.574-0.238c-0.616-0.084-1.175-0.531-1.385-1.125c-0.106-0.291-0.129-0.631-0.075-0.918
					c0.031-0.279,0.141-0.61,0.328-0.858c0.368-0.516,1.038-0.797,1.667-0.695c17.153,2.629,32.683,5.008,43.962,6.737
					c5.598,0.882,10.139,1.598,13.316,2.099c0.86,0.074,1.422,0.83,1.434,1.466c0.021,0.636-0.227,1.176-0.578,1.44
					c-0.339,0.278-0.684,0.336-0.898,0.343C200.888,261.135,200.781,261.094,200.781,261.094z"/>
			</g>
		</g>
		<path style="fill:#FF725E;" d="M140.138,216.507c-0.085,0.548-0.874,13.687-1.276,20.431c-0.148,2.477,0.847,4.88,2.699,6.531
			l2.717,2.423l57.242,8.88l3.276-1.465c2.291-1.024,3.979-3.051,4.571-5.49l4.816-19.823L140.138,216.507z"/>
		<g style="opacity:0.3;">
			<path d="M145.108,272.972c5.32,2.103,10.8,3.061,16.856,3.973c4.89,0.736,9.66,1.615,14.982,2.328
				c3.899,0.523,7.506,0.882,11.408,1.316c1.975,0.22,4.2,0.056,4.656-0.277L145.108,272.972z"/>
		</g>
		<g style="opacity:0.3;">
			<path d="M144.104,265.972c5.75,2.17,11.659,3.195,18.188,4.18c5.271,0.796,10.416,1.732,16.152,2.509
				c4.202,0.57,8.089,0.972,12.292,1.453c2.128,0.243,4.521,0.106,5.007-0.223L144.104,265.972z"/>
		</g>
		<g style="opacity:0.3;">
			<path d="M145.129,259.361c5.75,2.17,11.659,3.194,18.188,4.18c5.271,0.796,10.416,1.732,16.152,2.509
				c4.202,0.57,8.089,0.972,12.292,1.453c2.128,0.244,4.521,0.106,5.007-0.223L145.129,259.361z"/>
		</g>
		<g style="opacity:0.3;">
			<path d="M146.154,252.751c5.75,2.17,11.66,3.195,18.188,4.18c5.271,0.796,10.415,1.732,16.151,2.509
				c4.202,0.57,8.089,0.972,12.293,1.453c2.128,0.243,4.521,0.106,5.007-0.223L146.154,252.751z"/>
		</g>
		<g>
			<path style="fill:#263238;" d="M155.93,209.118c-0.009,0.015-0.272-0.121-0.766-0.394c-0.488-0.284-1.234-0.66-2.136-1.242
				c-1.836-1.111-4.41-2.867-7.36-5.329c-2.953-2.456-6.228-5.686-9.379-9.679c-3.153-3.986-6.129-8.769-8.506-14.138
				c-2.337-5.389-3.836-10.82-4.628-15.841c-0.799-5.024-0.953-9.622-0.757-13.457c0.19-3.838,0.645-6.921,1.072-9.023
				c0.184-1.057,0.413-1.861,0.535-2.412c0.134-0.549,0.212-0.834,0.229-0.83c0.017,0.004-0.028,0.298-0.13,0.852
				c-0.089,0.557-0.287,1.365-0.441,2.425c-0.367,2.107-0.765,5.184-0.909,9.002c-0.15,3.817,0.041,8.383,0.86,13.368
				c0.812,4.982,2.313,10.366,4.632,15.713c2.358,5.327,5.298,10.08,8.409,14.053c3.109,3.981,6.336,7.217,9.244,9.694
				c2.905,2.483,5.436,4.277,7.234,5.436c0.883,0.605,1.611,1.008,2.081,1.32C155.692,208.937,155.938,209.103,155.93,209.118z"/>
		</g>
		<g>
			<path style="fill:#263238;" d="M129.225,124.048c0.129,0.054-0.393,1.593-1.165,3.437c-0.773,1.844-1.503,3.296-1.632,3.241
				c-0.129-0.054,0.393-1.592,1.165-3.437C128.365,125.445,129.096,123.994,129.225,124.048z"/>
		</g>
		<g>
			<path style="fill:#263238;" d="M246.805,177.976c-0.016-0.007,0.062-0.252,0.225-0.711c0.185-0.502,0.429-1.167,0.734-1.998
				c0.165-0.437,0.345-0.916,0.541-1.438c0.182-0.531,0.338-1.122,0.529-1.749c0.357-1.261,0.855-2.672,1.161-4.295
				c0.179-0.806,0.365-1.649,0.56-2.527c0.188-0.88,0.284-1.813,0.439-2.77c0.346-1.91,0.455-3.981,0.631-6.152
				c0.182-4.352,0.016-9.156-0.744-14.13c-0.824-4.966-2.159-9.584-3.685-13.665c-0.842-2.009-1.589-3.944-2.512-5.652
				c-0.445-0.861-0.826-1.719-1.278-2.496c-0.458-0.773-0.897-1.517-1.318-2.227c-0.796-1.448-1.708-2.633-2.439-3.721
				c-0.377-0.536-0.709-1.049-1.046-1.498c-0.348-0.434-0.669-0.834-0.961-1.198c-0.549-0.695-0.987-1.25-1.319-1.67
				c-0.297-0.386-0.447-0.594-0.434-0.606c0.013-0.011,0.189,0.174,0.512,0.539c0.35,0.405,0.814,0.942,1.395,1.613
				c0.304,0.357,0.637,0.749,0.999,1.175c0.35,0.441,0.695,0.948,1.085,1.479c0.756,1.077,1.693,2.255,2.514,3.699
				c0.432,0.71,0.883,1.452,1.354,2.224c0.464,0.778,0.857,1.636,1.312,2.498c0.945,1.711,1.712,3.652,2.572,5.671
				c1.561,4.1,2.921,8.751,3.75,13.754c0.766,5.011,0.919,9.853,0.71,14.235c-0.189,2.186-0.316,4.269-0.682,6.189
				c-0.165,0.961-0.272,1.899-0.471,2.782c-0.207,0.88-0.405,1.726-0.595,2.535c-0.331,1.627-0.855,3.038-1.24,4.297
				c-0.205,0.625-0.375,1.215-0.571,1.743c-0.212,0.518-0.407,0.994-0.585,1.428c-0.343,0.818-0.617,1.473-0.824,1.967
				C246.931,177.752,246.822,177.983,246.805,177.976z"/>
		</g>
		<g style="opacity:0.2;">
			<path style="fill:#FFFFFF;" d="M192.88,102.25c-0.747-3.095-3.631-5.709-7.267-7.443c-5.2-2.481-11.201-2.596-16.649-0.718
				c-16.029,5.524-25.908,13.65-33.698,29.588c-2.639,5.398-4.967,14.631-3.051,20.623c0.963,3.012,2.998,5.622,5.863,6.96
				c7.453,3.48,14.832-3.141,18.378-10.01c3.305-6.402,5.305-13.902,10.921-18.414c4.627-3.718,10.831-4.654,16.255-7.065
				C189.057,113.359,194.272,108.02,192.88,102.25z"/>
		</g>
		<g style="opacity:0.2;">
			<path style="fill:#FFFFFF;" d="M221.02,103.87c-1.857-4.819-7.974-7.648-11.968-6.545c-3.286,1.012-6.113,3.543-7.299,6.77
				c-1.43,3.889-0.251,8.629,2.916,11.301c3.167,2.672,8.128,3.007,11.558,0.683C219.657,113.755,222.51,107.737,221.02,103.87z"/>
		</g>
		<path style="opacity:0.3;" d="M140.138,216.507c-0.085,0.548-0.874,13.687-1.276,20.431c-0.148,2.477,0.847,4.88,2.699,6.531
			l2.717,2.423l57.242,8.88l3.276-1.465c2.291-1.024,3.979-3.051,4.571-5.49l4.816-19.823L140.138,216.507z"/>
		<g>
			<path style="fill:#263238;" d="M214.617,228.062c-0.021,0.138-16.638-2.325-37.109-5.501
				c-20.478-3.177-37.056-5.864-37.034-6.002c0.021-0.138,16.634,2.325,37.112,5.502
				C198.057,225.237,214.638,227.924,214.617,228.062z"/>
		</g>
		<g>
			<path style="fill:#263238;" d="M207.538,250.358c-0.021,0.138-15.35-2.125-34.233-5.055c-18.889-2.93-34.18-5.417-34.158-5.555
				c0.021-0.138,15.347,2.125,34.236,5.055C192.266,247.733,207.56,250.22,207.538,250.358z"/>
		</g>
	</g>
	<g>
		<g>
			<rect x="354.032" y="60.061" style="fill:#E0E0E0;" width="107.497" height="155.812"/>
		</g>
		<g>
			<rect x="348.647" y="60.061" style="fill:#F5F5F5;" width="107.497" height="155.812"/>
		</g>
		<g>
			<g>
				<rect x="362.003" y="76.936" style="fill:#FFFFFF;" width="80.786" height="122.061"/>
			</g>
			<g>
				<g>
					<path style="fill:#E0E0E0;" d="M442.788,198.998c0,0-0.011-0.207-0.016-0.597c-0.004-0.403-0.009-0.978-0.016-1.731
						c-0.008-1.534-0.018-3.78-0.033-6.695c-0.017-5.85-0.041-14.375-0.072-25.144c-0.032-21.523-0.078-52.002-0.132-87.894
						l0.268,0.268c-24.681,0.007-52.031,0.016-80.776,0.024h-0.01l0.292-0.292c-0.022,46.046-0.043,88.502-0.059,122.061
						l-0.233-0.233c24.602,0.051,44.768,0.093,58.801,0.122c7.019,0.026,12.501,0.046,16.246,0.059
						c1.861,0.011,3.286,0.02,4.264,0.026C442.279,198.981,442.788,198.998,442.788,198.998s-0.476,0.017-1.425,0.025
						c-0.968,0.006-2.379,0.015-4.221,0.026c-3.732,0.014-9.197,0.034-16.193,0.059c-14.068,0.029-34.283,0.071-58.946,0.123
						l-0.233,0l0-0.234c-0.016-33.559-0.037-76.015-0.059-122.061l0-0.293h0.293h0.01c28.745,0.009,56.094,0.017,80.776,0.024
						l0.269,0l0,0.268c-0.054,35.964-0.1,66.504-0.132,88.07c-0.031,10.743-0.055,19.247-0.072,25.083
						c-0.014,2.892-0.025,5.12-0.033,6.641c-0.007,0.74-0.012,1.305-0.016,1.701C442.799,198.812,442.788,198.998,442.788,198.998z"
						/>
				</g>
			</g>
		</g>
		<g>
			<g>
				<path style="fill:none;stroke:#FBFBFB;stroke-width:0.25;stroke-miterlimit:10;" d="M439.043,77.751"/>
			</g>
		</g>
		<g>
			<g>
				<path style="fill:#E0E0E0;" d="M456.446,60.061c0.063,0.049-0.667,1.114-1.916,2.784c-1.249,1.67-3.021,3.941-5.044,6.397
					c-2.024,2.456-3.914,4.631-5.313,6.177c-1.4,1.546-2.305,2.466-2.365,2.414c-0.062-0.054,0.733-1.07,2.052-2.683
					c1.441-1.748,3.214-3.9,5.176-6.279c1.959-2.38,3.73-4.532,5.17-6.282C455.536,60.986,456.381,60.011,456.446,60.061z"/>
			</g>
		</g>
		<g>
			<g>
				<path style="fill:#FFFFFF;" d="M443.2,198.605c4.012,6.38,8.749,12.304,14.09,17.622"/>
			</g>
			<g>
				<g>
					<path style="fill:#E0E0E0;" d="M457.29,216.226c-0.053,0.054-1.012-0.778-2.457-2.235c-1.444-1.455-3.358-3.55-5.315-5.995
						c-1.955-2.447-3.578-4.775-4.679-6.505c-1.103-1.729-1.704-2.848-1.639-2.888c0.073-0.046,0.796,0.993,1.982,2.656
						c1.185,1.663,2.85,3.939,4.793,6.371c1.945,2.43,3.798,4.555,5.16,6.077C456.496,215.231,457.351,216.165,457.29,216.226z"/>
				</g>
			</g>
		</g>
		<g>
			<g>
				<path style="fill:#FFFFFF;" d="M348.632,215.75c4.694-5.791,9.387-11.582,14.08-17.372"/>
			</g>
			<g>
				<g>
					<path style="fill:#E0E0E0;" d="M362.712,198.377c0.126,0.102-2.925,4.073-6.813,8.87c-3.889,4.798-7.142,8.604-7.268,8.503
						c-0.125-0.102,2.924-4.072,6.813-8.871C359.333,202.083,362.587,198.276,362.712,198.377z"/>
				</g>
			</g>
		</g>
		<g>
			<g>
				<path style="fill:#E0E0E0;" d="M348.647,60.061c0.127-0.1,3.187,3.558,6.834,8.17c3.649,4.613,6.503,8.433,6.376,8.533
					c-0.127,0.1-3.186-3.557-6.835-8.171C351.375,63.982,348.52,60.161,348.647,60.061z"/>
			</g>
		</g>
		<g>
			<rect x="390.569" y="101.72" style="fill:#E0E0E0;" width="27.05" height="76.803"/>
		</g>
	</g>
</g>
</svg>
